<svg xmlns="http://www.w3.org/2000/svg" xmlns:xlink="http://www.w3.org/1999/xlink" width="253" zoomAndPan="magnify" viewBox="0 0 189.75 215.999996" height="288" preserveAspectRatio="xMidYMid meet" version="1.0"><defs><g/><clipPath id="f9d6ca6c56"><path d="M 0 0.140625 L 189.5 0.140625 L 189.5 215.855469 L 0 215.855469 Z M 0 0.140625 " clip-rule="nonzero"/></clipPath></defs><g clip-path="url(#f9d6ca6c56)"><path fill="#ffffff" d="M 0 0.140625 L 189.5 0.140625 L 189.5 215.859375 L 0 215.859375 Z M 0 0.140625 " fill-opacity="1" fill-rule="nonzero"/></g><g fill="#e4c19d" fill-opacity="1"><g transform="translate(67.15393, 136.238924)"><g><path d="M 17.890625 2.453125 C 15.054688 2.453125 12.394531 1.867188 9.90625 0.703125 C 7.414062 -0.453125 5.398438 -2.273438 3.859375 -4.765625 C 2.398438 -6.992188 1.367188 -9.394531 0.765625 -11.96875 C 0.171875 -14.539062 -0.0820312 -17.414062 0 -20.59375 C 0 -23.34375 0.363281 -26.410156 1.09375 -29.796875 C 1.820312 -33.179688 2.785156 -36.65625 3.984375 -40.21875 C 5.191406 -43.78125 6.523438 -47.148438 7.984375 -50.328125 C 9.441406 -53.503906 10.898438 -56.207031 12.359375 -58.4375 C 14.328125 -61.695312 16.921875 -64.914062 20.140625 -68.09375 C 23.359375 -71.269531 26.875 -73.972656 30.6875 -76.203125 C 34.507812 -78.429688 38.3125 -79.757812 42.09375 -80.1875 C 44.664062 -80.1875 46.660156 -79.648438 48.078125 -78.578125 C 49.492188 -77.503906 50.457031 -75.679688 50.96875 -73.109375 C 51.488281 -70.960938 51.445312 -68.734375 50.84375 -66.421875 C 49.894531 -62.296875 48.238281 -58.453125 45.875 -54.890625 C 43.519531 -51.335938 41.054688 -47.929688 38.484375 -44.671875 C 37.878906 -43.640625 37.148438 -43.125 36.296875 -43.125 C 35.867188 -43.125 35.566406 -43.25 35.390625 -43.5 C 35.140625 -44.101562 35.3125 -44.707031 35.90625 -45.3125 C 38.144531 -48.226562 40.398438 -51.441406 42.671875 -54.953125 C 44.941406 -58.472656 46.550781 -62.035156 47.5 -65.640625 C 48.09375 -67.441406 48.265625 -69.242188 48.015625 -71.046875 C 47.753906 -74.910156 46.035156 -76.84375 42.859375 -76.84375 C 42.515625 -76.84375 42.171875 -76.820312 41.828125 -76.78125 C 41.484375 -76.738281 41.097656 -76.675781 40.671875 -76.59375 C 38.441406 -75.988281 36.082031 -75.085938 33.59375 -73.890625 C 27.414062 -70.535156 22.222656 -66.113281 18.015625 -60.625 C 13.816406 -55.132812 10.535156 -49.0625 8.171875 -42.40625 C 5.816406 -35.757812 4.207031 -28.960938 3.34375 -22.015625 C 3.082031 -19.609375 3.125 -17.242188 3.46875 -14.921875 C 3.8125 -12.609375 4.585938 -10.335938 5.796875 -8.109375 C 7.078125 -5.617188 8.769531 -3.816406 10.875 -2.703125 C 12.976562 -1.585938 15.40625 -0.988281 18.15625 -0.90625 C 20.207031 -0.90625 22.394531 -1.332031 24.71875 -2.1875 C 31.320312 -4.414062 37.132812 -7.566406 42.15625 -11.640625 C 47.175781 -15.722656 51.914062 -20.425781 56.375 -25.75 C 56.550781 -25.914062 56.765625 -26.128906 57.015625 -26.390625 C 57.273438 -26.648438 57.492188 -26.90625 57.671875 -27.15625 C 57.835938 -27.332031 58.050781 -27.546875 58.3125 -27.796875 C 58.570312 -28.054688 58.785156 -28.273438 58.953125 -28.453125 C 59.460938 -28.617188 59.765625 -28.703125 59.859375 -28.703125 C 60.285156 -28.703125 60.628906 -28.570312 60.890625 -28.3125 C 61.484375 -27.882812 61.566406 -27.242188 61.140625 -26.390625 C 61.054688 -26.210938 60.882812 -26 60.625 -25.75 C 60.539062 -25.65625 60.453125 -25.546875 60.359375 -25.421875 C 60.273438 -25.296875 60.191406 -25.144531 60.109375 -24.96875 C 57.960938 -22.476562 55.773438 -20.03125 53.546875 -17.625 C 51.316406 -15.226562 48.957031 -12.957031 46.46875 -10.8125 C 44.40625 -8.925781 41.675781 -6.953125 38.28125 -4.890625 C 34.894531 -2.828125 31.398438 -1.085938 27.796875 0.328125 C 24.191406 1.742188 20.890625 2.453125 17.890625 2.453125 Z M 17.890625 2.453125 "/></g></g></g><path stroke-linecap="butt" transform="matrix(0.632458, 0, 0, 0.632458, 57.808874, 50.678031)" fill="none" stroke-linejoin="miter" d="M 78.932606 160.129242 C 78.444679 160.129242 78.148217 160.079832 78.055572 159.987187 C 77.252654 159.690725 76.851195 159.04839 76.851195 158.047831 C 76.851195 157.535198 76.894429 157.23256 76.99325 157.133739 C 78.284095 154.045592 79.334066 150.803037 80.136984 147.424603 C 80.42727 145.719946 80.717556 144.015289 81.014018 142.310631 C 81.329009 140.630679 81.681058 138.950727 82.070164 137.270774 C 82.774262 134.052925 83.422773 130.878309 84.003344 127.740751 C 84.614798 124.597017 85.269485 121.484165 85.979759 118.389841 C 86.659151 115.202873 87.350896 112.034433 88.06117 108.896876 C 88.765268 105.753141 89.518776 102.640289 90.321694 99.545965 L 90.908442 96.735751 C 90.908442 96.124298 90.723153 95.772249 90.358752 95.673428 C 90.019056 95.574607 89.605244 95.531373 89.117317 95.531373 L 88.6788 95.531373 C 84.787734 95.821659 80.890492 96.124298 76.99325 96.439289 C 73.096008 96.735751 69.217294 97.075447 65.344757 97.464554 C 64.733304 97.464554 64.288611 97.513964 63.992149 97.612785 C 63.800684 97.705429 63.541279 97.75484 63.226288 97.75484 C 62.936002 97.75484 62.688951 97.80425 62.497486 97.903071 C 60.891649 98.001891 59.940499 98.946864 59.650214 100.750343 C 59.261107 102.652641 58.859648 104.499354 58.445836 106.302832 C 58.050553 108.081605 57.649094 109.866554 57.235282 111.670032 C 56.846176 113.566155 56.444716 115.419043 56.030905 117.222521 C 55.641798 118.995118 55.252692 120.835654 54.863585 122.737953 C 54.350953 124.924361 53.900083 127.09224 53.510976 129.235415 C 53.12187 131.378589 52.720411 133.558821 52.306599 135.769935 C 52.115134 136.554324 51.991608 137.34489 51.942197 138.147808 C 51.892787 138.950727 52.016313 139.753645 52.306599 140.556563 C 52.819231 141.748588 52.893347 142.940613 52.528946 144.132638 C 52.183073 145.330839 51.769261 146.473454 51.28751 147.566658 C 50.873698 148.468397 50.262245 148.919267 49.459327 148.919267 C 49.360506 148.919267 49.311096 148.919267 49.311096 148.919267 C 49.311096 148.919267 49.261685 148.919267 49.169041 148.919267 C 49.07022 148.820446 48.9714 148.771036 48.872579 148.771036 C 47.878195 148.381929 47.377916 147.789005 47.377916 146.986086 C 47.377916 142.187105 47.828785 137.474592 48.730524 132.848547 C 49.632263 128.197797 50.626647 123.590281 51.726027 119.00747 L 55.450333 101.337091 C 55.765324 100.145066 55.475038 99.545965 54.573299 99.545965 C 54.060667 99.545965 53.708618 99.595375 53.510976 99.694196 C 53.12187 99.811546 52.745116 99.922719 52.380714 100.02154 C 52.041018 100.12036 51.676617 100.213005 51.28751 100.311826 C 50.873698 100.410646 50.459887 100.509467 50.046075 100.602111 C 49.656968 100.700932 49.261685 100.799753 48.872579 100.898574 C 48.681114 100.997394 48.180834 101.040628 47.377916 101.040628 C 46.377356 101.040628 45.833842 100.546525 45.735021 99.545965 C 45.53738 98.767752 45.784431 98.218062 46.463824 97.903071 C 46.877636 97.705429 47.25439 97.538669 47.594086 97.390438 C 47.964664 97.242207 48.341418 97.124857 48.730524 97.026037 C 49.119631 96.927216 49.484032 96.809866 49.823728 96.661635 C 50.18813 96.488699 50.564884 96.358997 50.95399 96.260176 C 52.176897 95.772249 53.270101 95.531373 54.245955 95.531373 C 55.363865 95.722838 56.216194 95.271969 56.796765 94.178765 C 57.309398 93.375846 57.686152 92.474107 57.933204 91.473548 C 58.174079 90.479164 58.396426 89.528015 58.587891 88.626276 C 59.687271 84.339927 60.805181 80.08446 61.947795 75.847521 C 63.115115 71.610583 64.443018 67.39835 65.931506 63.210822 C 66.122971 62.821715 66.295907 62.482019 66.437962 62.185557 C 66.586193 61.870566 66.722071 61.518517 66.839421 61.129411 C 66.938242 60.81442 67.061767 60.505605 67.209999 60.215319 C 67.352053 59.925033 67.475579 59.572984 67.5744 59.159172 C 68.062327 58.572424 68.605841 58.282139 69.217294 58.282139 C 69.729927 58.282139 70.032565 58.331549 70.131386 58.424193 C 71.026949 58.912121 71.323411 59.603866 71.002244 60.505605 C 70.909599 60.703246 70.835484 60.956474 70.786073 61.271465 C 70.736663 61.567927 70.662547 61.808803 70.569903 62.006444 C 70.471082 62.321435 70.372262 62.624074 70.273441 62.920536 C 70.17462 63.210822 70.081976 63.451697 69.983155 63.649339 C 68.377318 68.053037 66.950594 72.425854 65.709159 76.755437 C 64.467724 81.091196 63.300404 85.50107 62.2072 89.978884 L 61.731625 91.912064 C 61.632804 93.128795 62.182494 93.740248 63.374519 93.740248 C 63.68951 93.740248 63.942739 93.678485 64.14038 93.554959 C 64.239201 93.554959 64.35655 93.554959 64.504781 93.554959 C 64.653012 93.554959 64.770362 93.554959 64.869183 93.554959 C 66.864126 93.363494 68.889951 93.165852 70.934304 92.974387 C 72.978658 92.776746 74.998306 92.634691 76.99325 92.53587 C 78.988193 92.338229 81.014018 92.171469 83.058371 92.023238 C 85.102725 91.850302 87.171784 91.671189 89.265548 91.473548 C 90.747859 91.282082 91.66195 91.035031 92.001646 90.744745 C 92.366048 90.429754 92.748978 89.577425 93.138085 88.187759 C 95.231849 80.714442 97.368847 73.364651 99.561431 66.132209 C 101.778721 58.899768 104.323355 51.692032 107.195332 44.515177 C 107.411502 43.903724 107.670907 43.304623 107.961193 42.724052 C 108.251478 42.112598 108.702348 41.612319 109.313801 41.223212 C 109.604087 40.932926 110.054957 40.784695 110.66641 40.784695 C 111.345802 40.982336 111.734909 41.420853 111.833729 42.100246 C 112.0499 42.711699 112.0499 43.273742 111.833729 43.780198 C 111.444623 44.558411 111.197571 45.108102 111.104927 45.423093 C 109.103807 49.999727 107.33121 54.588714 105.768608 59.190054 C 104.236887 63.772865 102.779281 68.392733 101.389615 73.068189 L 97.337965 87.749242 C 96.850038 89.429194 97.251497 90.26917 98.542343 90.26917 L 99.419377 90.26917 C 100.636107 90.077705 101.840484 89.880063 103.032509 89.688598 C 104.224534 89.490957 105.416559 89.299492 106.608584 89.10185 C 106.905046 89.10185 107.096511 89.05244 107.195332 88.953619 C 107.318858 88.953619 107.39915 88.953619 107.44856 88.953619 C 107.49797 88.953619 107.572086 88.953619 107.670907 88.953619 C 108.862932 88.737449 109.554677 89.225376 109.752318 90.417401 C 109.851139 91.411785 109.492914 92.072648 108.689995 92.387639 C 107.695612 92.776746 106.596231 93.067032 105.404206 93.264673 C 104.823635 93.363494 104.224534 93.437609 103.619257 93.480843 C 103.032509 93.530254 102.433409 93.616722 101.828132 93.740248 C 101.216678 93.839069 100.611402 93.931713 99.999948 94.030534 C 99.419377 94.129354 98.832629 94.228175 98.245881 94.32082 C 96.349758 94.41964 95.256554 95.4202 94.960092 97.316323 C 94.54628 98.90363 94.132468 100.52182 93.718656 102.177067 C 93.32955 103.832314 92.940443 105.499913 92.551337 107.179866 C 92.16223 108.884523 91.760771 110.564475 91.346959 112.219722 C 90.957853 113.850264 90.568746 115.517864 90.179639 117.222521 C 89.568186 119.995678 88.962909 122.762658 88.351456 125.511109 C 87.764708 128.25956 87.221194 131.02654 86.708562 133.799697 C 86.220634 136.597558 85.670944 139.339833 85.065667 142.014169 C 84.478919 144.719386 83.885995 147.467837 83.274542 150.271875 C 83.083077 151.4639 82.798967 152.655925 82.434566 153.84795 C 82.094869 155.039975 81.730468 156.188766 81.341361 157.28197 C 81.242541 157.49814 81.168425 157.708134 81.119015 157.8996 C 81.069604 158.097241 81.001665 158.294882 80.902844 158.486348 C 80.779319 158.683989 80.668145 158.850749 80.575501 158.99898 C 80.47668 159.16574 80.377859 159.351029 80.279039 159.54867 C 79.889932 159.937777 79.439063 160.129242 78.932606 160.129242 Z M 78.932606 160.129242 " stroke="#07363c" stroke-width="7.292415" stroke-opacity="1" stroke-miterlimit="4"/><g fill="#e4c19d" fill-opacity="1"><g transform="translate(86.733966, 137.957299)"><g><path d="M 21 14 C 20.6875 14 20.5 13.96875 20.4375 13.90625 C 19.925781 13.71875 19.671875 13.304688 19.671875 12.671875 C 19.671875 12.359375 19.703125 12.171875 19.765625 12.109375 C 20.585938 10.148438 21.253906 8.097656 21.765625 5.953125 C 21.953125 4.890625 22.140625 3.820312 22.328125 2.75 C 22.515625 1.675781 22.734375 0.601562 22.984375 -0.46875 C 23.429688 -2.488281 23.84375 -4.488281 24.21875 -6.46875 C 24.59375 -8.457031 25.003906 -10.429688 25.453125 -12.390625 C 25.890625 -14.410156 26.328125 -16.410156 26.765625 -18.390625 C 27.210938 -20.378906 27.6875 -22.351562 28.1875 -24.3125 L 28.578125 -26.109375 C 28.578125 -26.492188 28.460938 -26.71875 28.234375 -26.78125 C 28.015625 -26.84375 27.75 -26.875 27.4375 -26.875 L 27.15625 -26.875 C 24.695312 -26.675781 22.234375 -26.484375 19.765625 -26.296875 C 17.304688 -26.109375 14.847656 -25.890625 12.390625 -25.640625 C 12.015625 -25.640625 11.734375 -25.609375 11.546875 -25.546875 C 11.421875 -25.484375 11.257812 -25.453125 11.0625 -25.453125 C 10.875 -25.453125 10.71875 -25.421875 10.59375 -25.359375 C 9.582031 -25.296875 8.984375 -24.695312 8.796875 -23.5625 C 8.546875 -22.363281 8.289062 -21.195312 8.03125 -20.0625 C 7.78125 -18.925781 7.53125 -17.789062 7.28125 -16.65625 C 7.03125 -15.457031 6.78125 -14.289062 6.53125 -13.15625 C 6.28125 -12.019531 6.023438 -10.851562 5.765625 -9.65625 C 5.453125 -8.257812 5.171875 -6.882812 4.921875 -5.53125 C 4.671875 -4.175781 4.414062 -2.804688 4.15625 -1.421875 C 4.03125 -0.910156 3.953125 -0.40625 3.921875 0.09375 C 3.890625 0.59375 3.96875 1.097656 4.15625 1.609375 C 4.476562 2.367188 4.523438 3.125 4.296875 3.875 C 4.078125 4.632812 3.8125 5.363281 3.5 6.0625 C 3.25 6.625 2.867188 6.90625 2.359375 6.90625 C 2.296875 6.90625 2.265625 6.90625 2.265625 6.90625 C 2.265625 6.90625 2.234375 6.90625 2.171875 6.90625 C 2.109375 6.84375 2.046875 6.8125 1.984375 6.8125 C 1.359375 6.5625 1.046875 6.179688 1.046875 5.671875 C 1.046875 2.648438 1.328125 -0.320312 1.890625 -3.25 C 2.460938 -6.1875 3.09375 -9.109375 3.78125 -12.015625 L 6.15625 -23.171875 C 6.34375 -23.929688 6.148438 -24.3125 5.578125 -24.3125 C 5.265625 -24.3125 5.046875 -24.28125 4.921875 -24.21875 C 4.671875 -24.15625 4.429688 -24.09375 4.203125 -24.03125 C 3.984375 -23.96875 3.75 -23.90625 3.5 -23.84375 C 3.25 -23.78125 2.992188 -23.71875 2.734375 -23.65625 C 2.484375 -23.59375 2.234375 -23.53125 1.984375 -23.46875 C 1.859375 -23.40625 1.546875 -23.375 1.046875 -23.375 C 0.410156 -23.375 0.0625 -23.6875 0 -24.3125 C -0.125 -24.820312 0.03125 -25.171875 0.46875 -25.359375 C 0.71875 -25.484375 0.953125 -25.59375 1.171875 -25.6875 C 1.398438 -25.78125 1.640625 -25.859375 1.890625 -25.921875 C 2.140625 -25.984375 2.375 -26.0625 2.59375 -26.15625 C 2.820312 -26.25 3.0625 -26.328125 3.3125 -26.390625 C 4.070312 -26.710938 4.765625 -26.875 5.390625 -26.875 C 6.085938 -26.75 6.625 -27.03125 7 -27.71875 C 7.3125 -28.226562 7.546875 -28.796875 7.703125 -29.421875 C 7.867188 -30.054688 8.015625 -30.65625 8.140625 -31.21875 C 8.828125 -33.9375 9.535156 -36.632812 10.265625 -39.3125 C 10.992188 -41.988281 11.828125 -44.648438 12.765625 -47.296875 C 12.898438 -47.554688 13.015625 -47.78125 13.109375 -47.96875 C 13.203125 -48.15625 13.28125 -48.375 13.34375 -48.625 C 13.40625 -48.8125 13.484375 -49 13.578125 -49.1875 C 13.671875 -49.382812 13.75 -49.609375 13.8125 -49.859375 C 14.125 -50.234375 14.472656 -50.421875 14.859375 -50.421875 C 15.171875 -50.421875 15.359375 -50.390625 15.421875 -50.328125 C 15.984375 -50.015625 16.171875 -49.570312 15.984375 -49 C 15.921875 -48.875 15.875 -48.71875 15.84375 -48.53125 C 15.8125 -48.34375 15.765625 -48.1875 15.703125 -48.0625 C 15.640625 -47.875 15.578125 -47.679688 15.515625 -47.484375 C 15.453125 -47.296875 15.390625 -47.140625 15.328125 -47.015625 C 14.316406 -44.242188 13.414062 -41.484375 12.625 -38.734375 C 11.84375 -35.992188 11.101562 -33.207031 10.40625 -30.375 L 10.125 -29.140625 C 10.0625 -28.378906 10.40625 -28 11.15625 -28 C 11.351562 -28 11.515625 -28.03125 11.640625 -28.09375 C 11.703125 -28.09375 11.78125 -28.09375 11.875 -28.09375 C 11.96875 -28.09375 12.046875 -28.09375 12.109375 -28.09375 C 13.367188 -28.21875 14.644531 -28.34375 15.9375 -28.46875 C 17.226562 -28.601562 18.503906 -28.703125 19.765625 -28.765625 C 21.035156 -28.890625 22.316406 -29 23.609375 -29.09375 C 24.898438 -29.1875 26.207031 -29.296875 27.53125 -29.421875 C 28.476562 -29.546875 29.0625 -29.703125 29.28125 -29.890625 C 29.5 -30.085938 29.734375 -30.625 29.984375 -31.5 C 31.316406 -36.226562 32.675781 -40.878906 34.0625 -45.453125 C 35.445312 -50.023438 37.054688 -54.582031 38.890625 -59.125 C 39.015625 -59.507812 39.171875 -59.890625 39.359375 -60.265625 C 39.546875 -60.640625 39.828125 -60.957031 40.203125 -61.21875 C 40.398438 -61.40625 40.6875 -61.5 41.0625 -61.5 C 41.5 -61.375 41.75 -61.085938 41.8125 -60.640625 C 41.9375 -60.265625 41.9375 -59.921875 41.8125 -59.609375 C 41.5625 -59.097656 41.40625 -58.75 41.34375 -58.5625 C 40.082031 -55.664062 38.960938 -52.765625 37.984375 -49.859375 C 37.003906 -46.953125 36.070312 -44.019531 35.1875 -41.0625 L 32.640625 -31.78125 C 32.328125 -30.71875 32.578125 -30.1875 33.390625 -30.1875 L 33.96875 -30.1875 C 34.71875 -30.3125 35.472656 -30.4375 36.234375 -30.5625 C 36.992188 -30.6875 37.75 -30.8125 38.5 -30.9375 C 38.695312 -30.9375 38.828125 -30.96875 38.890625 -31.03125 C 38.953125 -31.03125 39 -31.03125 39.03125 -31.03125 C 39.0625 -31.03125 39.109375 -31.03125 39.171875 -31.03125 C 39.921875 -31.15625 40.363281 -30.835938 40.5 -30.078125 C 40.5625 -29.453125 40.335938 -29.046875 39.828125 -28.859375 C 39.203125 -28.609375 38.507812 -28.414062 37.75 -28.28125 C 37.375 -28.21875 36.992188 -28.171875 36.609375 -28.140625 C 36.234375 -28.109375 35.859375 -28.0625 35.484375 -28 C 35.097656 -27.9375 34.71875 -27.875 34.34375 -27.8125 C 33.96875 -27.75 33.585938 -27.6875 33.203125 -27.625 C 32.003906 -27.5625 31.3125 -26.929688 31.125 -25.734375 C 30.875 -24.722656 30.617188 -23.695312 30.359375 -22.65625 C 30.109375 -21.613281 29.859375 -20.554688 29.609375 -19.484375 C 29.359375 -18.410156 29.109375 -17.351562 28.859375 -16.3125 C 28.609375 -15.28125 28.351562 -14.226562 28.09375 -13.15625 C 27.71875 -11.382812 27.335938 -9.628906 26.953125 -7.890625 C 26.578125 -6.160156 26.234375 -4.414062 25.921875 -2.65625 C 25.609375 -0.882812 25.257812 0.847656 24.875 2.546875 C 24.5 4.253906 24.125 5.992188 23.75 7.765625 C 23.625 8.515625 23.445312 9.265625 23.21875 10.015625 C 23 10.773438 22.765625 11.503906 22.515625 12.203125 C 22.453125 12.328125 22.40625 12.453125 22.375 12.578125 C 22.34375 12.703125 22.296875 12.832031 22.234375 12.96875 C 22.171875 13.09375 22.109375 13.203125 22.046875 13.296875 C 21.984375 13.390625 21.921875 13.5 21.859375 13.625 C 21.597656 13.875 21.3125 14 21 14 Z M 21 14 "/></g></g></g></svg>