<?xml version="1.0" standalone="no"?>
<!DOCTYPE svg PUBLIC "-//W3C//DTD SVG 20010904//EN"
 "http://www.w3.org/TR/2001/REC-SVG-20010904/DTD/svg10.dtd">
<svg version="1.0" xmlns="http://www.w3.org/2000/svg"
 width="572.000000pt" height="111.000000pt" viewBox="0 0 572.000000 111.000000"
 preserveAspectRatio="xMidYMid meet">

<g transform="translate(0.000000,111.000000) scale(0.100000,-0.100000)"
fill="#000000" stroke="none">
<path d="M343 1060 c-5 -19 -6 -19 -18 -3 -11 15 -13 15 -24 -8 -11 -23 -11
-23 3 -5 14 17 16 18 16 3 0 -9 7 -17 15 -17 13 0 17 6 14 26 0 4 5 11 13 15
11 7 11 9 0 9 -8 0 -16 -9 -19 -20z"/>
<path d="M384 1065 c-3 -8 -4 -20 -2 -27 3 -7 7 -1 10 15 6 29 1 36 -8 12z"/>
<path d="M441 1053 l1 -28 7 25 8 25 6 -25 5 -25 -1 24 c-3 36 -27 40 -26 4z"/>
<path d="M527 1073 c-2 -4 -1 -17 4 -28 5 -13 8 -15 8 -5 1 13 2 13 12 0 8
-12 9 -10 7 9 -3 24 -22 39 -31 24z"/>
<path d="M650 1064 c-11 -12 -10 -18 3 -32 14 -13 19 -14 29 -3 11 10 10 11
-3 6 -21 -8 -35 13 -19 28 9 9 17 5 35 -17 l23 -28 -5 26 c-3 14 -9 23 -13 21
-5 -3 -11 -1 -15 5 -9 14 -21 12 -35 -6z"/>
<path d="M960 1055 c0 -14 2 -25 4 -25 2 0 6 11 8 25 3 14 1 25 -3 25 -5 0 -9
-11 -9 -25z"/>
<path d="M1000 1059 c0 -9 7 -19 15 -23 8 -3 14 -2 12 2 -1 4 3 7 8 7 6 0 9
-6 8 -14 -1 -9 2 -10 10 -2 7 7 7 14 -2 25 -9 11 -9 15 1 18 7 3 -2 5 -19 5
-25 0 -33 -5 -33 -18z"/>
<path d="M1098 1055 c2 -14 6 -25 7 -25 1 0 5 11 7 25 3 16 1 25 -7 25 -8 0
-10 -9 -7 -25z"/>
<path d="M495 1060 c3 -5 1 -10 -4 -10 -6 0 -11 -4 -11 -8 0 -4 9 -8 19 -8 16
0 17 4 10 18 -5 10 -12 18 -15 18 -3 0 -2 -4 1 -10z"/>
<path d="M574 1057 c-3 -10 -4 -21 0 -24 3 -4 6 2 6 13 1 18 1 18 11 2 15 -27
38 -23 31 5 -5 19 -7 19 -10 4 -4 -18 -4 -18 -17 0 -13 17 -14 17 -21 0z"/>
<path d="M740 1048 c-10 -20 -9 -21 2 -6 13 15 15 15 26 0 10 -14 11 -13 2 6
-6 12 -13 22 -15 22 -2 0 -9 -10 -15 -22z"/>
<path d="M801 1054 c-1 -11 2 -24 6 -27 9 -10 33 13 32 32 0 10 -4 7 -11 -9
l-11 -25 -7 25 c-7 22 -8 22 -9 4z"/>
<path d="M850 1060 c0 -5 5 -10 11 -10 5 0 7 5 4 10 -3 6 -8 10 -11 10 -2 0
-4 -4 -4 -10z"/>
<path d="M877 1056 c-4 -10 -5 -21 -2 -24 9 -9 17 6 13 25 -3 17 -4 17 -11 -1z"/>
<path d="M1072 1050 c0 -14 2 -19 5 -12 2 6 2 18 0 25 -3 6 -5 1 -5 -13z"/>
<path d="M1130 1061 c0 -3 4 -12 9 -19 6 -11 9 -9 13 5 3 12 0 20 -8 20 -8 0
-14 -3 -14 -6z"/>
<path d="M920 1040 c0 -5 5 -10 10 -10 6 0 10 5 10 10 0 6 -4 10 -10 10 -5 0
-10 -4 -10 -10z"/>
<path d="M347 858 c-16 -332 -7 -484 32 -557 54 -100 183 -179 324 -196 139
-18 307 78 376 214 20 38 21 56 21 361 l0 320 -373 0 -374 0 -6 -142z m424 77
c21 7 22 6 11 -8 -11 -13 -10 -17 5 -26 16 -9 16 -10 -4 -11 -15 0 -23 -6 -23
-17 0 -13 -3 -14 -12 -5 -8 8 -15 9 -25 1 -10 -9 -13 -8 -13 5 0 9 -6 16 -12
16 -10 0 -9 3 1 9 9 6 10 11 2 15 -18 12 -12 24 9 19 13 -3 20 0 20 8 0 12 2
12 9 0 6 -9 16 -11 32 -6z m-161 -205 l0 -100 54 0 c30 0 58 -5 62 -11 4 -8 9
-8 17 0 6 6 33 11 59 11 l48 0 0 100 0 100 120 0 120 0 0 -100 0 -100 -111 0
c-98 0 -110 -2 -99 -15 7 -8 21 -15 31 -15 17 0 19 -9 19 -90 l0 -90 80 0 80
0 0 -33 c0 -19 -12 -52 -28 -78 -47 -73 -162 -169 -202 -169 -6 0 -10 49 -10
139 l0 139 -120 1 -120 0 0 -140 c0 -89 -4 -139 -10 -139 -25 0 -110 52 -149
92 -46 45 -91 127 -91 166 0 21 3 22 90 22 l90 0 0 85 c0 68 3 85 15 85 8 0
19 9 25 20 10 19 8 20 -111 20 l-122 0 6 68 c4 37 7 82 7 100 l0 32 125 0 125
0 0 -100z"/>
<path d="M672 545 c0 -16 2 -22 5 -12 2 9 2 23 0 30 -3 6 -5 -1 -5 -18z"/>
<path d="M822 545 c0 -16 2 -22 5 -12 2 9 2 23 0 30 -3 6 -5 -1 -5 -18z"/>
<path d="M640 540 c6 -11 13 -20 16 -20 2 0 0 9 -6 20 -6 11 -13 20 -16 20 -2
0 0 -9 6 -20z"/>
<path d="M1459 663 c-6 -16 -22 -57 -35 -93 -14 -36 -32 -71 -41 -77 -14 -11
-10 -13 28 -13 29 0 39 3 30 9 -9 6 -11 18 -7 35 9 37 61 37 78 0 10 -21 9
-27 -3 -35 -9 -6 0 -8 31 -8 25 0 40 3 33 5 -6 3 -28 50 -49 105 -20 54 -41
99 -46 99 -5 0 -13 -12 -19 -27z m31 -85 c0 -11 -8 -18 -20 -18 -23 0 -25 12
-9 42 9 17 13 18 20 7 5 -8 9 -22 9 -31z"/>
<path d="M1603 676 c14 -11 17 -29 17 -94 0 -67 -3 -83 -17 -91 -14 -8 -7 -10
32 -10 39 0 46 2 33 10 -12 6 -18 22 -18 44 0 30 3 35 23 35 13 0 28 -5 35
-12 14 -14 27 13 18 39 -5 12 -9 14 -18 5 -7 -7 -22 -12 -35 -12 -20 0 -23 5
-23 40 0 39 1 40 35 40 24 0 35 -5 35 -15 0 -8 5 -15 10 -15 6 0 10 11 10 25
0 25 -1 25 -77 25 -67 -1 -76 -3 -60 -14z"/>
<path d="M1773 676 c14 -11 17 -29 17 -99 0 -73 -3 -86 -17 -90 -10 -3 19 -5
65 -6 81 -1 82 -1 82 24 0 30 -20 33 -27 5 -4 -14 -14 -20 -34 -20 -28 0 -29
2 -29 45 0 35 4 45 16 45 9 0 23 -8 30 -17 12 -16 13 -13 13 22 0 35 -1 38
-13 23 -24 -33 -46 -22 -46 22 0 38 2 40 30 40 20 0 30 -5 30 -15 0 -8 5 -15
10 -15 6 0 10 11 10 25 0 25 -1 25 -77 25 -67 -1 -76 -3 -60 -14z"/>
<path d="M2038 678 c17 -17 17 -188 0 -189 -7 -1 3 -5 22 -10 97 -24 180 42
120 96 -17 15 -17 19 -5 32 19 19 19 48 -1 67 -11 11 -35 16 -82 16 -51 0 -63
-3 -54 -12z m110 -37 c3 -15 -3 -30 -14 -38 -32 -23 -44 -16 -44 28 0 38 1 40
28 37 20 -2 28 -9 30 -27z m-14 -71 c48 -18 26 -80 -28 -80 -12 0 -16 11 -16
45 0 48 4 51 44 35z"/>
<path d="M2299 663 c-6 -16 -22 -57 -35 -93 -14 -36 -32 -71 -41 -77 -14 -11
-10 -13 28 -13 29 0 39 3 30 9 -9 6 -11 18 -7 35 9 37 61 37 78 0 10 -21 9
-27 -3 -35 -9 -6 0 -8 31 -8 25 0 40 3 33 5 -6 3 -28 50 -49 105 -20 54 -41
99 -46 99 -5 0 -13 -12 -19 -27z m31 -85 c0 -11 -8 -18 -20 -18 -23 0 -25 12
-9 42 9 17 13 18 20 7 5 -8 9 -22 9 -31z"/>
<path d="M2443 679 c14 -8 17 -25 17 -99 0 -62 -4 -90 -12 -93 -7 -2 8 -7 33
-11 47 -7 97 5 111 27 14 22 8 66 -9 76 -15 8 -16 12 -5 22 19 20 15 67 -7 79
-27 14 -153 13 -128 -1z m111 -31 c8 -14 6 -22 -11 -39 -30 -30 -53 -19 -53
26 0 33 2 36 26 33 15 -2 32 -11 38 -20z m-3 -87 c19 -16 22 -23 13 -37 -29
-49 -74 -43 -74 9 0 52 20 61 61 28z"/>
<path d="M2676 591 c-21 -55 -43 -102 -49 -105 -7 -2 6 -5 28 -5 28 0 36 2 26
8 -12 8 -13 14 -3 35 17 37 69 37 78 0 4 -17 2 -29 -7 -35 -9 -6 3 -9 35 -9
42 0 47 2 33 13 -9 6 -31 52 -50 101 -19 50 -38 91 -44 93 -5 2 -26 -41 -47
-96z m64 -18 c0 -7 -9 -13 -20 -13 -21 0 -25 15 -13 46 6 16 7 16 20 -2 7 -10
13 -24 13 -31z"/>
<path d="M2848 678 c17 -17 16 -185 0 -191 -7 -3 24 -6 70 -6 l82 -1 0 30 c0
37 -13 39 -28 5 -9 -19 -19 -25 -42 -25 l-30 0 0 86 c0 71 3 89 18 100 15 12
11 13 -32 14 -39 0 -47 -3 -38 -12z"/>
<path d="M3063 675 c-12 -8 -27 -31 -33 -51 -26 -77 17 -149 90 -149 73 0 116
72 90 149 -14 45 -44 66 -90 66 -20 0 -45 -7 -57 -15z m103 -37 c29 -56 1
-148 -46 -148 -33 0 -55 39 -55 95 0 61 16 85 56 85 22 0 32 -7 45 -32z"/>
<path d="M3253 676 c14 -11 17 -29 17 -99 0 -73 -3 -86 -17 -90 -10 -3 19 -5
65 -6 l82 -1 0 30 c0 36 -15 40 -24 5 -5 -20 -13 -25 -36 -25 l-30 0 0 86 c0
71 3 89 18 100 15 12 10 13 -38 13 -48 0 -53 -1 -37 -13z"/>
<path d="M3466 591 c-21 -55 -43 -102 -49 -105 -7 -2 6 -5 28 -5 28 0 36 2 26
8 -12 8 -13 14 -3 35 17 37 69 37 78 0 4 -17 2 -29 -7 -35 -9 -6 3 -9 35 -9
42 0 47 2 33 13 -9 6 -31 52 -50 101 -19 50 -38 91 -44 93 -5 2 -26 -41 -47
-96z m64 -18 c0 -7 -9 -13 -20 -13 -21 0 -25 15 -13 46 6 16 7 16 20 -2 7 -10
13 -24 13 -31z"/>
<path d="M3718 668 c5 -7 12 -48 14 -90 4 -93 18 -113 79 -113 61 0 79 27 79
121 0 43 4 74 10 74 6 0 10 5 10 10 0 6 -16 10 -35 10 -19 0 -35 -4 -35 -10 0
-5 5 -10 10 -10 6 0 10 -33 10 -80 0 -70 -2 -81 -21 -90 -16 -9 -26 -8 -45 5
-22 14 -24 22 -24 90 0 43 4 75 10 75 6 0 10 5 10 10 0 6 -19 10 -41 10 -32 0
-39 -3 -31 -12z"/>
<path d="M3930 670 c0 -5 5 -10 10 -10 6 0 10 -35 10 -85 0 -69 -3 -86 -17
-94 -14 -8 -9 -10 26 -11 39 0 42 2 27 13 -14 10 -16 25 -14 77 l3 65 55 -82
c30 -46 61 -83 68 -83 9 0 12 27 12 100 0 60 4 100 10 100 6 0 10 5 10 10 0 6
-16 10 -35 10 -19 0 -35 -4 -35 -10 0 -5 5 -10 10 -10 6 0 10 -27 10 -62 l0
-63 -48 72 c-39 61 -51 73 -74 73 -16 0 -28 -4 -28 -10z"/>
<path d="M4168 668 c17 -17 16 -185 0 -191 -7 -3 10 -5 37 -5 28 0 42 2 33 5
-15 4 -18 17 -18 90 0 70 3 88 18 99 15 12 11 13 -32 14 -39 0 -47 -3 -38 -12z"/>
<path d="M4260 670 c0 -5 4 -10 9 -10 5 0 25 -42 46 -92 20 -51 40 -97 45
-102 11 -11 31 30 60 119 13 39 30 75 39 82 13 10 8 12 -29 12 -37 0 -42 -2
-29 -12 14 -11 14 -18 -6 -76 -12 -36 -24 -61 -27 -55 -19 30 -47 119 -38 122
25 9 6 22 -30 22 -22 0 -40 -4 -40 -10z"/>
<path d="M4488 668 c17 -17 16 -185 0 -191 -7 -3 22 -6 65 -6 76 -1 77 -1 77
24 0 30 -16 33 -23 5 -4 -15 -14 -20 -36 -20 -30 0 -31 1 -31 45 0 39 3 45 20
45 11 0 23 -7 26 -15 9 -21 24 -8 24 20 0 28 -15 41 -24 20 -3 -8 -15 -15 -26
-15 -17 0 -20 6 -20 40 0 37 2 40 29 40 16 0 31 -6 35 -15 9 -24 26 -17 26 10
0 25 -2 25 -77 25 -60 0 -74 -3 -65 -12z"/>
<path d="M4673 666 c14 -11 17 -29 17 -99 0 -73 -3 -86 -17 -90 -10 -3 5 -5
32 -5 28 0 44 2 38 5 -8 2 -13 22 -13 44 0 41 14 53 25 20 11 -37 46 -71 71
-71 l25 0 -30 37 c-35 42 -38 55 -16 73 21 17 19 63 -3 83 -13 12 -37 17 -83
17 -55 -1 -62 -2 -46 -14z m105 -41 c3 -19 -2 -33 -14 -42 -29 -21 -34 -16
-34 33 0 41 2 45 23 42 16 -2 23 -11 25 -33z"/>
<path d="M4884 655 c-23 -35 -7 -68 46 -95 42 -22 52 -48 25 -70 -19 -16 -45
-6 -52 20 -7 28 -20 25 -26 -6 -4 -21 1 -27 22 -35 39 -16 99 5 107 36 9 36 1
49 -48 82 -50 34 -58 66 -17 71 20 2 28 -2 32 -17 8 -31 29 -26 25 7 -3 25 -7
27 -50 30 -41 3 -49 0 -64 -23z"/>
<path d="M5043 666 c14 -11 17 -29 17 -99 0 -73 -3 -86 -17 -90 -10 -3 5 -5
32 -5 28 0 44 2 38 5 -17 6 -18 174 -1 191 9 9 1 12 -37 12 -44 -1 -48 -2 -32
-14z"/>
<path d="M5140 650 c0 -34 19 -41 27 -10 3 11 14 20 24 20 17 0 19 -9 19 -89
0 -62 -4 -91 -12 -94 -7 -3 10 -5 37 -5 28 0 42 2 33 5 -16 4 -18 17 -18 94 0
81 2 89 19 89 11 0 23 -9 26 -20 10 -30 25 -24 25 10 l0 30 -90 0 -90 0 0 -30z"/>
<path d="M5342 667 c27 -21 78 -116 78 -147 0 -17 -7 -33 -17 -39 -14 -8 -7
-10 32 -10 39 0 46 2 33 10 -11 6 -18 22 -18 40 0 31 55 139 71 139 5 0 9 5 9
10 0 6 -17 10 -37 10 -27 0 -34 -3 -26 -11 9 -9 7 -20 -5 -45 -8 -19 -19 -34
-22 -34 -3 0 -14 15 -22 34 -12 25 -14 36 -5 45 8 8 -2 11 -38 11 -42 -1 -47
-3 -33 -13z"/>
<path d="M400 185 c-10 -12 -10 -18 -2 -26 7 -5 10 -6 7 -3 -2 4 0 15 6 25 12
23 6 25 -11 4z"/>
<path d="M495 110 c3 -5 8 -10 11 -10 2 0 4 5 4 10 0 6 -5 10 -11 10 -5 0 -7
-4 -4 -10z"/>
<path d="M543 108 c3 -9 1 -19 -6 -22 -7 -2 -4 -5 6 -5 20 -1 21 7 6 29 -9 13
-10 13 -6 -2z"/>
<path d="M840 96 c0 -8 4 -17 9 -20 5 -4 7 3 4 14 -6 23 -13 26 -13 6z"/>
<path d="M770 70 c0 -11 4 -20 9 -20 5 0 7 9 4 20 -3 11 -7 20 -9 20 -2 0 -4
-9 -4 -20z"/>
</g>
</svg>
