<?xml version="1.0" standalone="no"?>
<!DOCTYPE svg PUBLIC "-//W3C//DTD SVG 20010904//EN"
 "http://www.w3.org/TR/2001/REC-SVG-20010904/DTD/svg10.dtd">
<svg version="1.0" xmlns="http://www.w3.org/2000/svg"
 width="216.000000pt" height="216.000000pt" viewBox="0 0 216.000000 216.000000"
 preserveAspectRatio="xMidYMid meet">

<g transform="translate(0.000000,216.000000) scale(0.100000,-0.100000)"
fill="#000000" stroke="none">
<path d="M1068 2086 c-32 -49 -37 -106 -12 -130 36 -37 124 -6 124 43 0 30
-11 52 -23 44 -6 -3 -7 -1 -3 5 6 10 -41 82 -54 82 -3 0 -17 -20 -32 -44z m98
-100 c-3 -13 -13 -26 -21 -30 -14 -5 -14 -4 0 16 8 13 15 32 16 43 0 11 3 14
6 7 3 -7 2 -23 -1 -36z"/>
<path d="M847 2024 c-402 -73 -722 -385 -803 -785 -22 -112 -15 -341 15 -452
90 -336 347 -599 688 -704 81 -25 102 -27 268 -27 157 -1 191 2 265 22 398
108 700 465 736 870 5 51 13 85 25 101 23 29 26 101 5 101 -11 0 -16 14 -19
48 l-3 47 -2 -47 c-2 -46 -3 -48 -32 -48 -29 0 -30 2 -30 45 0 25 -4 45 -10
45 -5 0 -10 -20 -10 -45 0 -25 -4 -45 -10 -45 -16 0 -12 -86 5 -100 32 -26 9
-197 -44 -336 -131 -338 -434 -564 -806 -599 -94 -9 -237 9 -348 45 -311 100
-554 371 -624 695 -21 94 -21 290 0 381 68 310 304 577 598 680 87 30 203 54
265 54 44 0 44 0 44 35 l0 35 -47 -1 c-27 0 -83 -7 -126 -15z m1148 -914 c-4
-12 -2 -20 6 -20 8 0 8 -4 -1 -15 -9 -10 -17 -12 -23 -6 -12 12 -1 61 14 61 6
0 8 -9 4 -20z"/>
<path d="M1829 1463 c-13 -16 -12 -17 4 -4 9 7 17 15 17 17 0 8 -8 3 -21 -13z"/>
<path d="M707 948 c-8 -18 -36 -82 -61 -142 -25 -60 -51 -115 -57 -122 -9 -11
-7 -14 10 -14 12 0 20 4 17 9 -3 5 3 30 15 55 l20 46 62 0 63 0 21 -50 c14
-34 17 -50 9 -54 -6 -2 12 -5 39 -5 34 0 45 2 35 8 -8 6 -41 74 -75 152 -33
78 -65 144 -72 146 -7 3 -19 -11 -26 -29z m56 -150 c-2 -5 -27 -8 -54 -8 -57
0 -56 -2 -16 88 l20 47 27 -60 c15 -33 25 -63 23 -67z"/>
<path d="M1288 825 l-3 -155 30 0 30 0 -3 81 -4 81 46 -4 c36 -2 46 0 46 12 0
12 -10 14 -45 12 l-45 -4 0 61 0 61 68 0 c40 0 73 -5 80 -12 9 -9 12 -8 12 5
0 15 -13 17 -105 17 l-104 0 -3 -155z"/>
</g>
</svg>
