<?xml version="1.0" standalone="no"?>
<!DOCTYPE svg PUBLIC "-//W3C//DTD SVG 20010904//EN"
 "http://www.w3.org/TR/2001/REC-SVG-20010904/DTD/svg10.dtd">
<svg version="1.0" xmlns="http://www.w3.org/2000/svg"
 width="379.000000pt" height="279.000000pt" viewBox="0 0 379.000000 279.000000"
 preserveAspectRatio="xMidYMid meet">

<g transform="translate(0.000000,279.000000) scale(0.100000,-0.100000)"
fill="#000000" stroke="none">
<path d="M1690 2705 c-208 -41 -395 -140 -541 -285 -175 -175 -274 -391 -286
-630 -10 -197 36 -390 133 -552 88 -147 257 -304 412 -382 109 -55 260 -74
399 -50 66 12 85 11 147 -2 166 -38 354 2 522 110 193 126 331 310 410 546 27
81 28 93 28 270 0 175 -2 189 -28 270 -122 371 -419 632 -804 706 -91 17 -303
17 -392 -1z m333 -35 c126 -18 276 -111 346 -214 61 -90 80 -200 47 -265 -26
-48 -36 -52 -222 -79 -44 -6 -62 -15 -80 -36 -13 -15 -24 -34 -24 -42 0 -9
-10 -14 -27 -14 -34 0 -103 -31 -122 -53 -43 -53 -38 24 8 118 43 86 56 96
109 84 34 -7 50 -6 78 7 19 9 37 20 40 25 7 13 -57 49 -87 49 -28 0 -106 -54
-151 -105 -32 -35 -35 -23 -14 48 27 90 133 187 204 187 30 0 32 -2 32 -37 0
-33 7 -44 49 -80 27 -23 51 -39 55 -36 11 12 6 78 -9 103 -28 50 -29 53 -5 72
13 10 29 17 37 14 20 -8 15 12 -6 24 -29 15 -47 12 -78 -13 -22 -18 -35 -22
-60 -17 -40 9 -90 -8 -149 -52 l-47 -35 -22 25 c-27 32 -45 22 -45 -26 0 -55
-17 -75 -25 -30 -8 43 16 133 45 171 24 31 100 62 129 52 27 -8 27 1 1 15 -26
14 -92 -4 -137 -37 l-32 -23 -7 23 c-4 12 -7 49 -5 82 1 38 -4 67 -12 79 -13
18 -14 18 -35 -5 -31 -32 -29 -83 3 -111 16 -14 25 -32 25 -52 l0 -30 -27 27
c-61 58 -145 73 -183 33 -48 -52 15 -78 72 -31 27 23 33 24 52 12 11 -8 35
-33 53 -55 27 -35 30 -46 23 -71 -10 -37 -6 -109 11 -182 10 -46 10 -64 -1
-102 -14 -52 -24 -53 -34 -6 -3 17 -15 43 -26 59 -11 15 -20 44 -20 64 0 42
-40 92 -82 102 -27 6 -28 4 -28 -30 0 -38 44 -100 79 -111 18 -5 67 -105 53
-105 -4 0 -32 25 -62 56 -67 70 -116 93 -196 94 -41 0 -66 5 -73 14 -13 15
-69 32 -77 23 -10 -10 25 -76 46 -87 19 -10 27 -9 51 9 15 12 37 21 47 21 43
0 116 -35 155 -74 l42 -41 -40 -3 c-22 -1 -64 -9 -93 -18 -77 -23 -138 -15
-198 27 l-49 34 48 3 c54 3 81 -11 74 -40 -5 -19 8 -25 18 -7 13 20 -5 57 -32
67 -16 6 -64 13 -108 15 -44 3 -88 8 -97 12 -37 15 -15 97 33 123 17 9 46 27
64 39 28 18 34 19 39 7 8 -22 67 -44 88 -33 9 5 28 9 42 9 31 0 33 18 6 53
-23 29 -80 51 -110 42 -34 -11 -22 14 14 29 19 8 51 30 73 49 l39 36 12 -45
c9 -33 9 -50 1 -65 -16 -31 -5 -59 40 -103 l40 -39 11 27 c5 15 10 45 10 66 0
33 -6 43 -34 65 -43 33 -66 114 -42 149 41 61 61 70 215 96 67 11 176 11 254
0z m-493 -71 c0 -18 -99 -116 -131 -129 -26 -11 -32 -10 -44 6 -8 11 -15 24
-15 31 0 7 41 32 91 57 101 51 99 50 99 35z m843 -40 c154 -79 302 -221 387
-372 31 -55 31 -58 16 -82 -18 -27 -32 -32 -38 -13 -3 9 -118 31 -118 22 0
-19 35 -74 50 -79 36 -11 21 -23 -36 -31 -63 -7 -85 0 -137 46 -46 40 -56 84
-32 146 23 62 17 153 -15 218 -14 28 -49 76 -79 108 -29 32 -50 58 -47 58 4 0
26 -10 49 -21z m-1045 -92 c3 -12 -4 -17 -22 -17 -16 0 -26 -6 -26 -15 0 -10
10 -15 30 -15 21 0 30 -5 30 -16 0 -30 -21 -55 -74 -84 -57 -32 -76 -61 -76
-115 0 -30 -4 -35 -22 -35 -61 -1 -147 -87 -148 -147 0 -28 -8 -28 -39 -2
l-25 20 52 102 c59 115 142 221 233 297 62 51 81 57 87 27z m-88 -341 c20 -6
60 -31 89 -54 29 -23 65 -45 79 -48 54 -12 62 -16 62 -30 0 -20 24 -18 72 7
23 12 67 25 97 29 70 10 99 -4 146 -68 29 -39 35 -56 35 -99 0 -29 -2 -53 -4
-53 -2 0 -26 21 -55 47 -41 37 -51 53 -51 78 0 29 -15 55 -32 55 -4 0 -8 -18
-8 -39 0 -34 6 -45 40 -73 46 -40 85 -87 77 -94 -7 -8 -65 23 -109 58 -30 23
-38 37 -38 62 0 36 -21 70 -52 87 -28 15 -48 -10 -48 -61 0 -41 42 -90 77 -90
11 0 26 -7 33 -15 12 -14 6 -15 -56 -10 -38 3 -83 8 -100 11 -39 6 -67 34 -54
54 25 39 0 82 -62 108 -27 11 -28 11 -28 -19 0 -34 13 -64 43 -96 11 -13 15
-23 9 -23 -6 0 -23 18 -39 40 -26 37 -82 70 -120 70 -22 0 -11 -65 17 -95 30
-32 25 -38 -22 -31 -103 16 -176 83 -185 169 -5 38 -1 48 23 76 25 28 89 60
119 60 6 0 26 -6 45 -13z m1176 -41 c11 -34 11 -36 -25 -65 -20 -17 -61 -40
-91 -51 -30 -11 -87 -45 -127 -75 -40 -31 -96 -67 -125 -81 -29 -14 -65 -36
-79 -49 l-26 -25 -7 71 c-8 86 -2 99 67 145 56 38 97 48 52 13 -39 -31 -58
-80 -43 -113 15 -34 42 -31 70 8 19 26 23 43 21 95 -2 60 -1 62 23 62 33 0 64
16 91 48 17 20 34 27 89 34 37 4 72 12 78 18 12 12 17 7 32 -35z m407 -26 c15
-38 15 -40 -1 -34 -9 4 -27 10 -39 12 -28 6 -29 20 -5 44 24 25 27 24 45 -22z
m-225 -151 c6 -13 12 -39 14 -58 l3 -34 -45 2 c-40 3 -49 -1 -76 -30 -17 -18
-34 -43 -36 -55 -5 -19 -1 -22 41 -26 81 -8 129 27 147 108 6 27 7 28 14 10 5
-11 9 -37 9 -59 1 -58 -51 -106 -149 -137 -61 -19 -84 -32 -121 -70 l-46 -48
-11 25 c-21 45 -104 79 -138 56 -18 -12 -23 -39 -10 -58 12 -16 17 -16 46 -4
32 13 34 12 62 -19 23 -25 28 -40 26 -68 -3 -39 -11 -45 -168 -118 -41 -19
-100 -49 -132 -67 -31 -18 -60 -30 -64 -25 -4 4 -8 44 -8 90 -1 66 3 90 21
122 52 97 124 152 239 184 22 6 58 26 80 46 38 34 38 35 20 50 -35 27 -84 19
-122 -19 -19 -19 -34 -41 -34 -50 0 -10 -21 -22 -65 -35 -36 -12 -81 -32 -99
-46 -45 -34 -56 -32 -56 13 1 77 59 155 148 201 21 11 45 27 53 37 25 31 128
102 157 108 17 4 41 -1 67 -14 23 -12 59 -20 87 -20 47 0 48 0 36 26 -12 27
-55 54 -84 54 -14 0 -12 6 10 29 l28 30 72 -55 c40 -29 78 -64 84 -76z m-1488
-78 c-1 -30 -29 -65 -71 -90 -23 -14 -50 -36 -61 -50 -21 -29 -34 -91 -24
-117 7 -17 8 -17 17 0 6 9 17 17 25 17 51 0 94 55 94 120 0 15 7 33 15 40 8 7
17 28 21 47 5 27 10 33 23 27 52 -22 105 -27 160 -16 76 16 120 15 172 -3 24
-9 77 -18 119 -21 150 -12 205 -68 204 -209 0 -76 -14 -188 -22 -181 -2 3 -15
46 -28 97 -14 56 -32 101 -45 115 -30 32 -43 30 -36 -4 5 -27 5 -27 -36 -24
l-42 3 39 -35 c21 -19 50 -36 64 -38 23 -3 28 -9 33 -43 4 -22 6 -41 5 -41 -3
-4 -139 30 -241 60 -96 28 -112 36 -124 60 -16 35 -3 71 32 87 35 16 87 -12
87 -46 0 -14 13 -39 29 -57 28 -31 29 -32 36 -9 4 14 1 31 -9 46 -21 32 -21
33 11 33 33 0 71 40 51 53 -20 13 -47 10 -78 -8 -27 -15 -30 -15 -54 0 -36 24
-85 21 -113 -5 -22 -21 -24 -21 -17 -3 24 65 94 114 163 115 34 0 121 -43 121
-59 0 -18 55 -29 90 -17 46 15 47 29 6 51 -28 15 -41 17 -63 9 -23 -8 -34 -6
-61 12 -112 76 -292 -3 -292 -129 0 -21 5 -48 11 -59 10 -19 9 -20 -7 -13 -11
4 -38 10 -61 12 -101 13 -133 -26 -133 -159 0 -84 -1 -87 -31 -112 -17 -14
-37 -26 -45 -26 -28 0 -102 183 -124 306 -17 94 -8 319 15 393 l17 54 79 -84
c43 -46 79 -91 79 -99z m1703 152 c50 -52 67 -118 67 -256 0 -249 -85 -456
-263 -643 -76 -80 -103 -100 -173 -134 -79 -38 -231 -79 -297 -79 -101 0 -167
100 -137 209 24 89 211 236 331 261 90 18 167 48 213 81 22 16 48 29 58 29 30
0 71 25 96 59 27 38 22 51 -21 51 -27 0 -43 -11 -93 -63 -61 -66 -123 -99
-213 -113 l-40 -6 22 53 c48 119 86 153 201 183 33 8 72 24 88 36 34 25 38 25
38 -1 0 -34 29 -85 54 -97 31 -14 36 -8 36 48 0 53 -28 100 -60 100 -17 0 -18
6 -13 48 6 56 -17 118 -67 182 l-30 38 43 11 c23 6 49 15 57 21 29 19 75 11
103 -18z m-1461 -492 c25 -7 35 -15 32 -25 -4 -10 5 -16 33 -20 67 -11 183
-53 248 -90 77 -43 115 -85 115 -128 0 -41 -32 -94 -66 -109 -24 -11 -29 -10
-42 11 -9 12 -42 40 -74 62 -38 26 -58 47 -58 59 0 26 20 26 27 0 7 -28 23
-25 23 4 0 29 -36 76 -59 76 -23 0 -41 -19 -41 -45 0 -17 -10 -23 -53 -33
-144 -33 -236 9 -272 128 -8 24 -7 24 18 7 37 -24 92 -22 111 4 26 38 -5 80
-58 78 l-31 -1 33 -14 c35 -15 41 -31 16 -41 -43 -16 -92 48 -63 83 15 18 90
15 161 -6z m-79 -289 c38 -11 61 -11 124 -1 102 16 137 3 187 -71 19 -29 57
-69 83 -88 105 -80 41 -174 -105 -156 -176 22 -310 97 -434 242 -74 86 -75 90
-34 107 19 8 41 24 47 34 12 20 14 19 49 -17 23 -24 54 -42 83 -50z"/>
<path d="M3115 643 c-15 -14 -15 -18 -1 -31 18 -19 46 -9 46 17 0 26 -26 34
-45 14z"/>
<path d="M332 623 c-5 -10 -19 -49 -32 -86 -12 -39 -29 -71 -39 -74 -20 -8
-31 -24 -25 -35 3 -4 32 -8 65 -8 45 0 59 3 59 15 0 7 -8 19 -17 24 -16 9 -16
12 -3 21 37 24 89 1 54 -24 -35 -26 -5 -35 116 -35 99 0 120 2 120 14 0 8 -9
15 -20 15 -23 0 -27 31 -10 74 10 28 30 35 30 11 0 -20 39 -19 47 1 3 9 -3 25
-16 37 -21 21 -23 21 -51 5 -17 -9 -30 -12 -30 -7 0 15 -63 7 -68 -8 -2 -7 3
-13 12 -13 13 0 16 -11 16 -51 l0 -51 -32 6 c-17 3 -33 8 -35 10 -2 2 -16 41
-31 87 -27 84 -27 84 -64 87 -27 2 -39 -1 -46 -15z m57 -75 c1 -11 -6 -18 -18
-18 -17 0 -18 3 -8 36 9 30 12 33 18 18 4 -11 8 -27 8 -36z"/>
<path d="M674 628 c-4 -6 1 -17 11 -24 15 -11 18 -28 17 -98 0 -63 3 -86 14
-90 7 -3 16 -1 19 4 3 4 19 3 35 -3 25 -9 36 -9 58 3 75 43 30 202 -46 161
-24 -13 -32 -5 -32 31 0 25 -3 28 -34 28 -19 0 -38 -5 -42 -12z m137 -105 c20
-52 -26 -100 -51 -54 -14 27 -13 47 6 65 22 23 33 20 45 -11z"/>
<path d="M1855 630 c-8 -14 3 -30 21 -30 8 0 14 -3 15 -7 0 -5 2 -34 4 -66 3
-54 2 -59 -21 -67 -26 -10 -31 -24 -13 -36 9 -5 78 -8 129 -5 6 1 10 10 10 21
0 15 -7 20 -25 20 -20 0 -25 5 -25 25 0 16 6 25 15 25 8 0 15 -7 15 -15 0 -8
7 -15 15 -15 11 0 15 12 15 50 0 38 -4 50 -15 50 -8 0 -15 -7 -15 -16 0 -9 -6
-14 -12 -11 -7 2 -13 12 -13 23 0 15 7 19 35 19 31 0 35 -3 38 -27 2 -20 9
-28 23 -28 16 0 19 7 19 50 l0 50 -104 0 c-59 0 -108 -4 -111 -10z"/>
<path d="M1457 623 c-4 -3 -7 -14 -7 -24 0 -9 -8 -20 -17 -24 -17 -6 -17 -7 0
-19 12 -10 17 -27 17 -64 0 -56 17 -82 55 -82 32 0 57 27 53 59 -4 32 -32 35
-36 4 -6 -43 -22 -23 -22 27 0 47 2 50 25 50 16 0 25 6 25 15 0 9 -9 15 -25
15 -20 0 -25 5 -25 25 0 18 -5 25 -18 25 -10 0 -22 -3 -25 -7z"/>
<path d="M933 580 c-49 -20 -59 -104 -18 -145 27 -28 79 -33 107 -11 41 30 46
107 9 140 -22 20 -70 28 -98 16z m68 -57 c18 -49 -17 -93 -49 -61 -15 15 -15
61 0 76 20 20 38 14 49 -15z"/>
<path d="M1162 574 c-12 -8 -22 -10 -22 -5 0 15 -57 14 -66 -1 -4 -6 0 -16 8
-22 8 -6 17 -29 20 -50 3 -31 1 -40 -14 -44 -10 -2 -18 -11 -18 -18 0 -10 15
-14 59 -14 66 0 87 14 46 30 -25 9 -27 14 -20 48 4 20 9 40 11 44 9 14 24 9
24 -8 0 -21 44 -15 48 7 3 18 -23 49 -41 49 -7 0 -23 -7 -35 -16z"/>
<path d="M1295 578 c-32 -19 -44 -41 -45 -81 0 -51 35 -87 85 -87 36 0 81 32
70 50 -8 13 -42 13 -50 0 -14 -23 -55 -4 -55 25 0 2 24 5 53 7 44 3 52 6 55
24 7 47 -68 89 -113 62z m60 -38 c8 -13 -20 -24 -41 -16 -20 8 -9 26 16 26 10
0 22 -5 25 -10z"/>
<path d="M1613 580 c-27 -11 -30 -45 -6 -54 11 -5 23 1 35 16 13 18 19 21 29
11 17 -17 5 -28 -46 -45 -35 -11 -40 -17 -43 -45 -3 -27 1 -35 23 -45 19 -8
34 -9 54 -2 17 7 34 7 48 1 12 -5 29 -7 37 -4 20 8 21 37 1 37 -11 0 -15 13
-15 54 0 34 -5 58 -14 65 -20 17 -77 23 -103 11z m65 -107 c-3 -19 -48 -32
-48 -14 0 10 28 30 43 31 5 0 7 -8 5 -17z"/>
<path d="M2123 578 c-27 -13 -30 -43 -6 -53 12 -4 24 1 35 15 18 22 38 19 38
-4 0 -8 -20 -19 -44 -25 -47 -12 -63 -34 -51 -71 8 -25 49 -36 81 -21 18 8 29
8 43 -1 10 -6 26 -8 37 -3 11 4 47 6 82 5 50 -1 62 2 62 14 0 9 -8 16 -20 16
-16 0 -20 7 -20 31 0 34 15 69 30 69 6 0 10 -7 10 -15 0 -8 9 -15 20 -15 28 0
27 45 -1 60 -16 9 -26 8 -45 -5 -13 -8 -24 -11 -24 -5 0 5 -16 10 -35 10 -37
0 -50 -25 -20 -36 24 -9 21 -90 -4 -97 -35 -9 -51 11 -51 63 0 39 -4 52 -22
64 -26 18 -63 20 -95 4z m67 -103 c0 -19 -24 -30 -41 -19 -9 5 -7 11 6 21 24
17 35 17 35 -2z"/>
<path d="M2552 574 c-12 -8 -22 -10 -22 -5 0 6 -16 11 -35 11 -28 0 -35 -4
-35 -20 0 -11 7 -20 15 -20 11 0 15 -11 15 -40 0 -27 -5 -43 -15 -46 -8 -4
-15 -12 -15 -20 0 -10 14 -14 50 -14 38 0 50 4 50 15 0 8 -5 15 -11 15 -6 0
-9 17 -7 43 3 36 7 43 27 45 24 4 24 3 18 -57 l-5 -61 32 0 c39 0 50 8 35 26
-6 7 -9 30 -7 51 2 31 7 39 26 41 20 3 22 -1 22 -42 0 -25 -4 -46 -10 -46 -5
0 -10 -7 -10 -15 0 -11 12 -15 50 -15 38 0 50 4 50 15 0 8 -7 15 -15 15 -11 0
-15 12 -15 50 0 37 -5 55 -20 70 -23 23 -26 24 -69 9 -24 -9 -35 -9 -44 0 -15
15 -28 14 -55 -5z"/>
<path d="M3230 570 c-37 -37 -21 -73 36 -89 15 -4 29 -12 32 -19 6 -18 -39
-15 -60 5 -23 20 -41 6 -36 -28 3 -20 9 -23 58 -25 59 -4 83 7 94 42 9 28 -14
54 -54 63 -18 3 -35 12 -38 19 -5 15 23 16 48 0 22 -14 29 -10 32 22 3 21 -1
23 -45 26 -37 2 -52 -1 -67 -16z"/>
<path d="M3425 578 c-33 -18 -45 -40 -45 -84 0 -34 5 -47 26 -63 45 -35 124
-22 124 19 0 22 -21 26 -49 8 -22 -14 -51 -4 -51 17 0 11 12 15 49 15 58 0 68
10 50 51 -17 43 -64 60 -104 37z m58 -43 c-3 -13 -53 -20 -53 -7 0 15 13 23
35 20 11 -2 19 -7 18 -13z"/>
<path d="M2775 569 c-4 -6 2 -19 13 -29 11 -10 25 -41 32 -69 11 -49 13 -51
46 -51 30 0 34 3 40 38 10 58 17 61 29 12 10 -40 14 -45 42 -48 31 -3 33 -1
49 55 9 32 23 62 30 66 8 4 14 15 14 22 0 11 -12 15 -44 15 -49 0 -64 -11 -41
-30 10 -8 13 -21 9 -39 -8 -34 -24 -51 -24 -25 0 10 -5 36 -11 57 -9 33 -14
38 -37 35 -22 -2 -28 -10 -35 -43 -14 -67 -19 -73 -28 -35 -4 20 -4 39 2 45 5
5 9 15 9 22 0 16 -86 18 -95 2z"/>
<path d="M3082 563 c2 -10 10 -17 16 -15 8 1 12 -15 12 -48 0 -38 -4 -50 -15
-50 -8 0 -15 -7 -15 -15 0 -12 13 -15 55 -15 40 0 55 4 55 14 0 8 -7 16 -15
20 -11 4 -15 21 -15 66 l0 60 -41 0 c-33 0 -40 -3 -37 -17z"/>
<path d="M1283 300 c-65 -26 -53 -157 15 -161 55 -4 82 24 82 86 0 35 -5 48
-26 64 -29 23 -38 24 -71 11z m70 -53 c13 -39 -8 -87 -37 -87 -31 0 -46 19
-46 56 0 53 9 65 43 62 23 -2 33 -10 40 -31z"/>
<path d="M2402 300 c-28 -12 -45 -55 -38 -99 7 -45 27 -64 67 -64 44 0 69 32
69 88 0 35 -5 48 -26 64 -29 23 -38 24 -72 11z m72 -56 c10 -38 -11 -84 -38
-84 -32 0 -46 19 -46 59 0 40 8 55 30 63 23 8 47 -9 54 -38z"/>
<path d="M1093 286 c13 -10 17 -28 17 -70 0 -31 -4 -56 -10 -56 -5 0 -10 -4
-10 -10 0 -5 18 -10 40 -10 22 0 40 5 40 10 0 6 -7 10 -15 10 -9 0 -15 9 -15
25 0 16 6 25 15 25 8 0 15 -7 15 -15 0 -8 5 -15 10 -15 12 0 13 77 1 84 -5 3
-11 -3 -14 -14 -7 -28 -27 -25 -27 5 0 21 5 25 30 25 23 0 30 -5 30 -19 0 -11
5 -23 10 -26 6 -4 10 8 10 29 l0 36 -72 0 c-63 -1 -71 -2 -55 -14z"/>
<path d="M1400 290 c0 -5 5 -10 10 -10 6 0 10 -26 10 -59 0 -67 13 -84 62 -84
42 0 58 25 58 90 0 29 5 53 10 53 6 0 10 5 10 10 0 6 -33 10 -80 10 -47 0 -80
-4 -80 -10z m94 -6 c12 -5 16 -21 16 -65 0 -58 0 -59 -29 -59 -17 0 -31 6 -35
16 -11 29 -6 83 10 98 18 18 17 18 38 10z"/>
<path d="M1583 286 c12 -10 17 -27 17 -66 0 -39 -5 -56 -17 -66 -16 -12 -13
-13 25 -14 41 0 56 12 27 24 -16 6 -22 86 -7 86 4 0 20 -25 35 -55 36 -74 57
-73 57 3 0 36 6 66 16 80 15 22 14 22 -25 22 -23 0 -41 -4 -41 -10 0 -5 7 -10
15 -10 11 0 15 -12 15 -46 0 -55 -8 -51 -40 15 -22 48 -26 51 -59 51 -32 -1
-34 -2 -18 -14z"/>
<path d="M1760 290 c0 -5 7 -10 15 -10 12 0 15 -13 15 -60 0 -47 -3 -60 -15
-60 -8 0 -15 -4 -15 -10 0 -6 27 -10 60 -10 75 0 100 20 100 80 0 60 -25 80
-100 80 -33 0 -60 -4 -60 -10z m129 -44 c12 -26 12 -33 0 -55 -9 -16 -25 -27
-42 -29 -27 -3 -27 -3 -27 58 0 61 0 61 27 58 19 -2 32 -12 42 -32z"/>
<path d="M1981 245 c-12 -31 -21 -60 -21 -64 0 -5 -10 -16 -22 -24 -22 -15
-22 -16 25 -16 26 -1 47 4 47 9 0 6 -7 10 -16 10 -27 0 -11 35 17 38 33 4 47
-25 22 -44 -16 -12 -12 -13 30 -14 45 0 66 15 30 22 -10 2 -24 27 -38 68 -28
85 -47 89 -74 15z m49 -17 c0 -5 -7 -8 -15 -8 -15 0 -20 21 -8 33 7 7 23 -11
23 -25z"/>
<path d="M2110 265 c0 -19 5 -35 10 -35 6 0 10 12 10 26 0 19 5 25 18 22 24
-5 32 -118 7 -118 -8 0 -15 -4 -15 -10 0 -5 18 -10 40 -10 22 0 40 5 40 10 0
6 -7 10 -15 10 -12 0 -15 13 -15 60 0 53 2 60 20 60 15 0 20 -7 20 -25 0 -14
5 -25 10 -25 6 0 10 16 10 35 l0 35 -70 0 -70 0 0 -35z"/>
<path d="M2273 286 c23 -18 25 -126 2 -126 -8 0 -15 -4 -15 -10 0 -13 77 -13
85 0 3 6 -1 10 -9 10 -24 0 -22 108 2 126 15 12 11 13 -33 13 -44 0 -48 -1
-32 -13z"/>
<path d="M2520 291 c0 -6 7 -11 15 -11 12 0 15 -13 15 -60 0 -47 -3 -60 -15
-60 -8 0 -15 -4 -15 -10 0 -5 18 -10 40 -10 22 0 40 5 40 10 0 6 -7 10 -15 10
-11 0 -15 12 -15 45 0 25 3 45 8 45 4 0 18 -25 31 -55 16 -39 29 -55 42 -55
17 0 19 8 19 66 0 52 4 70 18 80 15 12 12 13 -25 14 -24 0 -43 -4 -43 -10 0
-5 7 -10 15 -10 11 0 15 -12 15 -45 0 -25 -3 -45 -7 -45 -5 0 -19 24 -33 53
-22 45 -29 52 -57 55 -19 2 -33 -1 -33 -7z"/>
</g>
</svg>
