<?xml version="1.0" standalone="no"?>
<!DOCTYPE svg PUBLIC "-//W3C//DTD SVG 20010904//EN"
 "http://www.w3.org/TR/2001/REC-SVG-20010904/DTD/svg10.dtd">
<svg version="1.0" xmlns="http://www.w3.org/2000/svg"
 width="282.000000pt" height="88.000000pt" viewBox="0 0 282.000000 88.000000"
 preserveAspectRatio="xMidYMid meet">

<g transform="translate(0.000000,88.000000) scale(0.100000,-0.100000)"
fill="#000000" stroke="none">
<path d="M345 860 c-11 -5 -15 -9 -8 -9 6 -1 13 -11 15 -23 3 -19 5 -17 9 10
3 17 5 32 5 31 -1 0 -10 -4 -21 -9z"/>
<path d="M405 850 c-7 -23 1 -40 20 -40 15 0 31 37 21 48 -4 3 -9 -4 -13 -16
-3 -12 -9 -20 -13 -17 -5 3 -6 14 -3 25 7 26 -4 26 -12 0z"/>
<path d="M465 840 c-4 -12 -5 -24 -2 -27 3 -2 8 5 12 17 4 12 5 24 2 27 -3 2
-8 -5 -12 -17z"/>
<path d="M305 840 c5 -9 2 -10 -13 -6 -17 6 -19 3 -15 -15 6 -21 5 -21 -21 -4
-25 17 -26 17 -26 -1 0 -20 20 -57 20 -38 0 7 11 15 25 18 14 4 23 11 20 16
-3 6 1 7 9 4 19 -7 22 21 4 32 -7 5 -8 3 -3 -6z"/>
<path d="M493 834 c-15 -15 -17 -34 -4 -34 8 0 24 41 18 46 -1 1 -8 -4 -14
-12z"/>
<path d="M517 818 c-9 -31 -2 -33 11 -3 6 14 8 25 3 25 -5 0 -11 -10 -14 -22z"/>
<path d="M551 823 c0 -6 -4 -18 -7 -27 -8 -20 7 -20 32 0 15 13 16 15 2 10
-10 -3 -18 2 -21 12 -3 9 -5 12 -6 5z"/>
<path d="M200 789 c0 -6 -7 -9 -15 -5 -20 7 -19 -8 2 -25 14 -12 15 -12 9 0
-7 10 -3 12 14 6 20 -6 21 -5 11 14 -13 23 -21 27 -21 10z"/>
<path d="M372 789 c-40 -8 -53 -19 -24 -19 20 0 21 -2 10 -20 -10 -16 -20 -19
-41 -14 -19 4 -27 2 -25 -7 2 -7 -13 -17 -32 -23 -85 -26 -118 -65 -136 -160
-7 -40 12 -119 28 -110 4 3 6 10 3 15 -4 5 -1 9 4 9 6 0 16 -21 22 -46 8 -31
14 -41 20 -32 6 9 9 8 9 -8 0 -11 5 -25 12 -32 9 -9 9 -12 1 -12 -7 0 -15 5
-18 10 -4 6 -11 8 -16 5 -12 -8 10 -30 39 -37 15 -4 20 -3 15 5 -12 18 -16 65
-4 48 7 -11 11 -10 20 7 10 18 8 23 -16 36 -18 10 -22 15 -12 16 9 0 22 -7 29
-15 7 -8 16 -13 20 -10 5 3 10 -1 13 -7 8 -25 39 13 32 40 -5 19 -2 23 12 20
11 -2 19 -14 21 -31 2 -16 9 -27 18 -27 8 0 22 -16 30 -35 8 -19 20 -35 27
-36 6 0 21 -2 31 -4 11 -2 25 -1 30 3 20 12 44 9 39 -5 -3 -7 0 -13 6 -13 19
0 -6 -38 -30 -45 -11 -4 -19 -9 -16 -11 10 -10 59 18 101 56 123 113 120 317
-6 425 -48 40 -58 43 -58 15 0 -13 -7 -20 -20 -20 -11 0 -20 5 -20 11 0 7 -11
9 -30 6 -32 -7 -48 7 -31 26 15 19 -18 35 -57 26z m228 -100 c0 -5 -4 -9 -10
-9 -5 0 -10 7 -10 16 0 8 5 12 10 9 6 -3 10 -10 10 -16z m-143 -14 c25 -22 26
-24 8 -25 -18 0 -18 -2 5 -20 14 -11 30 -20 36 -20 6 0 17 -6 24 -14 6 -8 18
-12 26 -9 8 3 14 0 14 -6 0 -6 -4 -11 -10 -11 -6 0 -10 -35 -10 -86 0 -121
-15 -145 -90 -142 l-45 1 50 7 c47 6 48 6 20 14 -16 4 -36 9 -42 12 -7 2 -13
18 -13 36 0 26 9 40 40 66 21 17 41 32 44 32 14 0 4 -39 -14 -55 -21 -19 -26
-51 -11 -74 11 -17 31 -6 31 17 0 13 2 14 9 4 4 -8 8 28 8 82 1 53 -3 96 -8
96 -5 0 -9 -13 -9 -30 0 -37 -12 -39 -30 -5 -7 14 -18 25 -23 25 -5 0 -2 -12
8 -26 16 -25 16 -27 -6 -50 -12 -13 -28 -24 -35 -24 -8 0 -14 -17 -16 -42 -2
-24 -4 0 -4 52 0 52 2 77 4 55 4 -52 14 -60 42 -37 16 13 20 21 12 26 -7 4
-15 0 -18 -8 -11 -28 -23 -17 -26 22 -3 35 -5 37 -38 40 l-36 3 4 -41 c4 -43
-10 -54 -28 -21 -14 28 -12 66 5 109 12 28 18 33 25 22 5 -8 6 -18 3 -24 -3
-5 -1 -6 6 -2 6 4 9 12 6 17 -4 5 0 9 8 9 8 0 17 -7 21 -15 8 -22 33 -18 39 5
6 22 -25 50 -55 50 -33 0 -69 -43 -78 -95 l-9 -50 3 48 c3 33 11 56 27 73 12
13 19 24 15 24 -17 0 -64 -31 -70 -45 -3 -9 -10 -13 -16 -10 -14 8 -13 -90 1
-116 5 -11 14 -17 18 -14 5 2 14 -2 21 -10 7 -8 18 -15 24 -15 7 0 21 -7 32
-15 13 -10 4 -9 -28 5 l-48 19 -20 -21 c-16 -17 -22 -19 -34 -9 -9 7 -15 16
-14 19 1 4 -5 20 -12 35 -10 20 -16 24 -22 15 -5 -9 -8 -8 -8 5 0 10 13 32 30
50 16 18 30 36 30 40 0 4 9 17 20 29 11 12 20 18 20 13 0 -4 8 -1 18 7 24 22
40 26 94 27 36 1 53 -5 75 -24z m113 -27 c-1 -20 -2 -21 -13 -8 -7 8 -25 14
-42 13 l-30 -2 30 9 c49 13 55 11 55 -12z m73 -63 c4 -8 2 -17 -3 -20 -6 -4
-10 3 -10 14 0 25 6 27 13 6z m-31 -202 c-2 -7 -10 -13 -16 -13 -18 0 -35 21
-29 37 4 11 8 10 19 -4 12 -16 13 -15 15 12 1 29 1 29 8 5 4 -14 6 -31 3 -37z"/>
<path d="M589 779 c-8 -16 -8 -24 1 -33 8 -8 10 -7 5 6 -4 11 0 18 14 23 12 3
19 11 16 16 -10 15 -24 10 -36 -12z"/>
<path d="M144 759 c-3 -6 1 -18 10 -27 13 -13 18 -14 28 -3 11 10 9 11 -6 5
-15 -6 -17 -4 -11 6 6 9 4 11 -5 5 -10 -6 -12 -4 -7 8 7 19 2 23 -9 6z"/>
<path d="M624 748 c-11 -12 -13 -18 -6 -14 6 4 12 3 12 -3 0 -6 7 -8 15 -5 16
7 20 30 6 38 -4 3 -17 -4 -27 -16z"/>
<path d="M1191 736 c-32 -18 -50 -53 -51 -99 0 -54 23 -93 64 -107 47 -15 106
-4 106 21 0 15 -7 19 -40 19 -53 0 -78 34 -64 88 8 35 12 37 54 42 44 5 60 24
35 42 -16 12 -78 8 -104 -6z"/>
<path d="M1383 740 c-55 -22 -76 -125 -36 -178 45 -60 150 -47 179 24 42 101
-44 194 -143 154z m68 -40 c14 -8 19 -21 19 -55 0 -24 -3 -50 -6 -59 -8 -21
-60 -21 -68 0 -12 30 -6 93 10 108 18 19 20 19 45 6z"/>
<path d="M1542 738 c3 -7 20 -57 37 -110 33 -98 33 -98 66 -98 33 0 33 0 66
98 17 53 34 103 37 110 3 10 -3 13 -24 10 -25 -3 -30 -10 -49 -70 -12 -37 -24
-70 -27 -73 -2 -3 -15 29 -27 70 -21 72 -23 75 -52 75 -21 0 -30 -4 -27 -12z"/>
<path d="M1777 743 c-4 -3 -7 -53 -7 -110 l0 -103 80 0 c73 0 80 2 80 20 0 17
-7 20 -50 20 -47 0 -50 2 -50 25 0 22 4 25 35 25 28 0 35 4 35 20 0 16 -7 20
-35 20 -28 0 -35 4 -35 20 0 17 7 20 45 20 41 0 45 2 45 25 0 24 -2 25 -68 25
-38 0 -72 -3 -75 -7z"/>
<path d="M1960 640 l0 -110 25 0 c24 0 25 2 25 68 l1 67 37 -67 c34 -62 40
-68 70 -68 l33 0 -3 108 c-3 102 -4 107 -25 110 -22 3 -23 0 -23 -57 0 -34 -3
-61 -7 -61 -5 0 -23 27 -41 60 -29 52 -37 60 -62 60 l-30 0 0 -110z"/>
<path d="M2240 729 c-10 -18 -70 -186 -70 -196 0 -2 11 -3 24 -3 16 0 27 7 31
20 5 15 15 20 45 20 30 0 40 -5 45 -20 4 -14 15 -20 36 -20 35 0 36 -6 -15
130 -27 75 -34 85 -58 88 -19 2 -30 -3 -38 -19z m44 -81 c9 -35 8 -38 -14 -38
-11 0 -20 3 -20 8 0 19 13 52 20 52 4 0 10 -10 14 -22z"/>
<path d="M2407 743 c-4 -3 -7 -53 -7 -110 0 -103 0 -103 25 -103 23 0 24 3 27
68 l3 67 40 -67 c34 -58 43 -68 67 -68 l28 0 0 111 c0 109 0 110 -22 107 -20
-3 -24 -10 -28 -60 l-5 -57 -34 59 c-29 49 -40 60 -61 60 -15 0 -30 -3 -33 -7z"/>
<path d="M2620 725 c0 -21 4 -25 31 -25 l30 0 -3 -85 -3 -85 33 0 32 0 0 85 0
85 31 0 c26 0 30 3 27 23 -3 21 -8 22 -90 25 l-88 3 0 -26z"/>
<path d="M235 731 c-9 -16 9 -20 23 -5 10 12 10 14 -2 14 -8 0 -17 -4 -21 -9z"/>
<path d="M123 716 c6 -14 4 -17 -8 -12 -8 3 -15 1 -15 -4 0 -6 11 -10 25 -10
29 0 32 12 8 31 -15 12 -16 12 -10 -5z"/>
<path d="M664 705 c-4 -8 -11 -12 -18 -8 -8 4 -8 2 1 -7 13 -14 37 -4 27 12
-5 8 -1 9 10 5 10 -4 15 -3 11 3 -9 15 -25 12 -31 -5z"/>
<path d="M680 674 l-25 -15 25 7 c28 7 35 12 29 18 -2 2 -15 -2 -29 -10z"/>
<path d="M76 665 c-7 -19 32 -41 46 -27 15 15 2 42 -21 42 -10 0 -21 -7 -25
-15z m42 -14 c3 -8 -1 -12 -9 -9 -7 2 -15 10 -17 17 -3 8 1 12 9 9 7 -2 15
-10 17 -17z"/>
<path d="M697 646 c-17 -13 -16 -14 7 -12 15 0 26 7 26 14 0 15 -10 15 -33 -2z"/>
<path d="M64 610 c2 -22 42 -25 50 -3 6 14 5 16 -5 6 -7 -7 -19 -13 -25 -13
-7 0 -14 6 -17 13 -2 7 -3 6 -3 -3z"/>
<path d="M713 606 c-30 -14 -29 -21 4 -23 16 0 21 2 13 7 -10 6 -9 9 1 12 8 3
12 7 9 10 -3 2 -15 -1 -27 -6z"/>
<path d="M1150 401 c0 -55 17 -81 54 -81 35 0 46 19 44 79 l-1 56 -6 -54 c-6
-56 -25 -79 -55 -68 -12 5 -16 20 -16 62 0 30 -4 55 -10 55 -5 0 -10 -22 -10
-49z"/>
<path d="M1352 383 l1 -68 6 55 6 55 24 -38 c13 -21 25 -36 28 -33 5 5 -54 96
-62 96 -3 0 -4 -30 -3 -67z"/>
<path d="M1428 393 c-5 -63 -2 -77 13 -68 12 8 12 125 0 125 -5 0 -11 -26 -13
-57z"/>
<path d="M1540 385 c0 -37 4 -65 10 -65 6 0 10 28 10 65 0 37 -4 65 -10 65 -6
0 -10 -28 -10 -65z"/>
<path d="M1640 447 c0 -14 50 -122 57 -122 9 0 57 115 50 122 -3 2 -13 -17
-23 -44 -25 -70 -30 -71 -50 -9 -10 31 -21 56 -26 56 -4 0 -8 -1 -8 -3z"/>
<path d="M1840 385 l0 -65 48 2 47 1 -42 4 c-38 4 -43 7 -43 28 0 20 6 24 38
28 l37 4 -37 1 c-33 2 -38 5 -38 26 0 22 5 25 43 29 l42 4 -47 1 -48 2 0 -65z"/>
<path d="M2022 383 c0 -37 3 -53 5 -35 6 42 33 43 67 0 14 -18 28 -30 31 -27
3 4 -3 17 -14 30 -18 22 -18 25 -3 42 24 27 4 51 -47 55 l-41 3 2 -68z m76 45
c17 -17 -4 -38 -39 -38 -24 0 -29 4 -29 25 0 21 5 25 28 25 15 0 33 -5 40 -12z"/>
<path d="M2220 435 c-18 -22 -5 -43 32 -53 23 -6 33 -14 33 -27 0 -26 -32 -31
-56 -9 -20 18 -27 6 -7 -14 17 -17 63 -15 79 4 18 21 1 46 -40 58 -17 5 -31
15 -31 23 0 20 29 28 51 14 11 -6 19 -7 19 -2 0 23 -62 28 -80 6z"/>
<path d="M2403 385 c0 -38 2 -53 4 -32 2 20 2 52 0 70 -2 17 -4 1 -4 -38z"/>
<path d="M2518 443 c20 -4 22 -10 22 -64 0 -40 4 -58 11 -54 6 4 9 30 8 58 -3
47 -1 52 21 58 17 5 6 7 -30 7 -30 -1 -45 -3 -32 -5z"/>
<path d="M2691 418 c13 -17 26 -47 30 -67 6 -32 7 -33 8 -8 0 15 12 44 26 64
13 20 22 39 19 42 -3 3 -9 -1 -14 -9 -5 -8 -15 -24 -23 -34 -14 -19 -15 -19
-31 12 -9 18 -21 32 -27 32 -6 0 0 -14 12 -32z"/>
<path d="M146 395 c4 -8 10 -15 15 -15 4 0 6 7 3 15 -4 8 -10 15 -15 15 -4 0
-6 -7 -3 -15z"/>
<path d="M259 317 c5 -5 19 -7 32 -5 20 3 19 5 -9 9 -20 3 -29 2 -23 -4z"/>
<path d="M170 269 c-25 -4 -69 -8 -97 -8 -29 -1 -53 -5 -53 -11 0 -5 6 -7 13
-4 7 2 21 -2 31 -9 17 -13 17 -14 -13 -26 -17 -8 -31 -18 -31 -23 0 -7 5 -7
13 0 17 15 113 18 129 5 18 -15 97 -21 102 -8 2 5 5 4 5 -4 1 -8 -7 -20 -16
-27 -16 -12 -14 -14 22 -15 73 -4 110 -1 160 10 76 18 179 18 199 2 21 -18 16
-36 -12 -36 -18 0 -33 -14 -17 -15 19 -2 92 -33 106 -46 15 -13 17 -13 22 1 4
9 -1 20 -13 27 -30 19 -24 28 18 28 l37 1 -40 21 c-22 12 -43 21 -47 20 -12
-3 -10 26 2 33 16 10 11 21 -15 33 -34 16 -245 18 -274 3 -12 -7 -63 -13 -118
-13 -75 0 -98 3 -111 16 -15 15 -13 16 28 17 25 1 56 4 70 8 l25 7 -22 12
c-24 13 -36 13 -103 1z m400 -58 c0 -5 15 -6 33 -2 43 9 77 3 77 -14 0 -11
-13 -13 -57 -9 -32 3 -60 8 -62 10 -2 2 -10 -1 -17 -7 -14 -12 -29 4 -19 21 8
12 45 13 45 1z m-62 -13 c-5 -14 -32 -22 -106 -32 -47 -6 -53 -5 -50 10 2 13
15 18 51 19 26 2 51 5 54 9 12 11 55 6 51 -6z m-182 -18 c20 0 17 -17 -3 -22
-25 -7 -43 1 -43 19 0 10 6 13 16 9 9 -3 22 -6 30 -6z"/>
<path d="M135 159 c3 -9 24 -15 52 -17 43 -3 56 9 15 14 -9 0 -29 5 -45 9 -21
5 -26 4 -22 -6z"/>
</g>
</svg>
