<?xml version="1.0" standalone="no"?>
<!DOCTYPE svg PUBLIC "-//W3C//DTD SVG 20010904//EN"
 "http://www.w3.org/TR/2001/REC-SVG-20010904/DTD/svg10.dtd">
<svg version="1.0" xmlns="http://www.w3.org/2000/svg"
 width="593.000000pt" height="161.000000pt" viewBox="0 0 593.000000 161.000000"
 preserveAspectRatio="xMidYMid meet">

<g transform="translate(0.000000,161.000000) scale(0.100000,-0.100000)"
fill="#000000" stroke="none">
<path d="M1445 1080 c3 -5 10 -10 16 -10 5 0 9 5 9 10 0 6 -7 10 -16 10 -8 0
-12 -4 -9 -10z"/>
<path d="M1476 1062 c-8 -16 -11 -33 -7 -40 4 -7 11 5 18 28 12 47 9 51 -11
12z"/>
<path d="M1392 1057 c-12 -13 -19 -26 -16 -30 6 -6 54 37 54 49 0 11 -19 2
-38 -19z"/>
<path d="M1351 978 c-14 -41 -14 -58 2 -33 6 11 12 22 12 25 0 3 4 10 8 17 4
6 3 14 -2 17 -5 3 -14 -8 -20 -26z"/>
<path d="M1086 984 c-9 -8 -16 -12 -16 -7 -1 4 -10 -3 -21 -16 -26 -31 -17
-39 13 -11 28 26 67 43 85 36 7 -3 13 -1 13 4 0 16 -57 11 -74 -6z"/>
<path d="M1456 987 c3 -10 9 -15 12 -12 3 3 0 11 -7 18 -10 9 -11 8 -5 -6z"/>
<path d="M1128 931 c-9 -21 -12 -44 -9 -50 4 -6 13 10 19 36 16 58 10 66 -10
14z"/>
<path d="M1445 950 c5 -9 -23 -15 -47 -11 -5 0 -8 -4 -8 -10 0 -6 -7 -9 -15
-5 -8 3 -15 1 -15 -4 0 -12 2 -12 56 1 25 7 44 17 44 25 0 8 -5 14 -11 14 -5
0 -7 -4 -4 -10z"/>
<path d="M1021 910 c1 -8 -3 -28 -9 -43 -15 -35 -15 -47 -1 -47 5 0 7 5 4 10
-4 6 0 23 8 39 9 19 11 34 5 42 -7 11 -8 11 -7 -1z"/>
<path d="M1105 858 c4 -9 3 -23 -1 -30 -5 -7 -10 -24 -12 -37 -2 -14 -11 -30
-20 -38 -9 -7 -12 -13 -6 -13 16 0 28 19 44 68 11 34 11 45 1 55 -10 9 -11 8
-6 -5z"/>
<path d="M991 794 c0 -11 3 -14 6 -6 3 7 2 16 -1 19 -3 4 -6 -2 -5 -13z"/>
<path d="M977 744 c-3 -16 -4 -30 -3 -31 1 -2 17 3 34 9 30 12 52 38 32 38 -6
0 -10 -4 -10 -10 0 -16 -28 -11 -38 6 -8 14 -10 11 -15 -12z"/>
<path d="M1320 716 c-32 -9 -45 -17 -47 -31 -1 -16 -1 -17 3 -2 3 9 13 17 22
18 18 1 32 4 71 15 19 6 22 4 15 -7 -4 -8 -10 -23 -11 -33 -2 -11 -8 -25 -14
-32 -6 -7 -6 -15 -1 -18 5 -3 15 13 21 35 7 23 15 47 18 55 6 17 -14 17 -77 0z"/>
<path d="M988 648 c-33 -9 -39 -16 -54 -60 -13 -40 -14 -52 -4 -61 10 -9 11
-9 6 1 -4 7 -4 21 0 30 4 9 9 26 11 37 5 25 14 34 41 40 12 2 27 7 34 11 6 4
18 -2 25 -12 14 -19 15 -19 11 1 -4 24 -20 27 -70 13z"/>
<path d="M1252 612 c-15 -51 -15 -52 6 -52 14 0 14 2 3 9 -12 8 -12 13 1 33 9
14 13 30 9 37 -5 7 -12 -3 -19 -27z"/>
<path d="M1327 598 c-25 -27 -12 -37 14 -11 12 11 17 23 13 25 -5 3 -17 -4
-27 -14z"/>
<path d="M1037 580 c-4 -14 -6 -27 -6 -29 0 -2 -5 -8 -13 -12 -10 -7 -10 -9 0
-9 14 0 35 46 29 64 -2 6 -6 -1 -10 -14z"/>
<path d="M1280 570 c0 -5 5 -10 11 -10 5 0 7 5 4 10 -3 6 -8 10 -11 10 -2 0
-4 -4 -4 -10z"/>
<path d="M991 503 c-5 -10 -12 -17 -15 -16 -3 1 -13 0 -22 -4 -10 -4 -22 1
-29 11 -12 15 -13 15 -17 -2 -8 -29 64 -24 94 6 12 12 17 22 11 22 -7 0 -16
-8 -22 -17z"/>
</g>
</svg>
