<?xml version="1.0" standalone="no"?>
<!DOCTYPE svg PUBLIC "-//W3C//DTD SVG 20010904//EN"
 "http://www.w3.org/TR/2001/REC-SVG-20010904/DTD/svg10.dtd">
<svg version="1.0" xmlns="http://www.w3.org/2000/svg"
 width="500.000000pt" height="500.000000pt" viewBox="0 0 500.000000 500.000000"
 preserveAspectRatio="xMidYMid meet">

<g transform="translate(0.000000,500.000000) scale(0.100000,-0.100000)"
fill="#000000" stroke="none">
<path d="M2335 4020 c-16 -4 -49 -8 -73 -9 -39 -1 -43 -3 -40 -23 3 -20 9 -23
43 -23 l40 0 11 -87 c5 -48 12 -90 15 -92 3 -3 15 -3 27 1 19 4 22 11 18 32
-6 31 -19 144 -18 151 1 3 16 7 34 10 25 4 34 11 36 28 3 19 -1 22 -30 21 -18
-1 -46 -5 -63 -9z"/>
<path d="M2636 4019 c-2 -8 -7 -41 -10 -74 -3 -33 -8 -79 -12 -102 -6 -41 -6
-42 27 -48 19 -3 61 -7 94 -8 48 -2 60 1 63 15 3 13 -9 18 -62 23 -64 7 -66 8
-66 35 l0 28 61 -5 c56 -6 61 -4 57 13 -2 14 -16 21 -56 27 -50 8 -53 10 -50
35 3 29 3 29 91 17 42 -6 47 -5 47 13 0 25 -16 31 -106 39 -58 5 -74 3 -78 -8z"/>
<path d="M2883 3879 c-39 -106 -40 -110 -21 -120 25 -13 26 -13 53 62 26 72
27 71 65 -44 33 -97 62 -107 87 -32 6 17 22 61 37 98 l25 68 -21 8 c-18 6 -25
3 -35 -17 -7 -13 -13 -28 -13 -32 0 -4 -7 -25 -16 -46 l-17 -39 -31 94 c-23
69 -38 96 -53 102 -18 7 -24 -2 -60 -102z"/>
<path d="M2043 3962 c-10 -6 -6 -33 16 -115 15 -59 30 -109 33 -112 4 -5 83
13 140 31 19 6 24 29 8 39 -5 3 -32 -1 -60 -9 -27 -8 -51 -12 -54 -8 -2 4 -12
39 -21 77 -9 39 -19 78 -21 88 -6 18 -21 22 -41 9z"/>
<path d="M1898 3913 c-10 -2 -18 -6 -18 -8 0 -2 13 -32 30 -67 37 -78 38 -112
5 -134 -40 -26 -63 -10 -101 72 -34 75 -39 80 -63 65 -15 -10 -11 -29 25 -108
28 -61 55 -83 104 -83 80 0 130 67 104 140 -21 61 -55 130 -62 129 -4 -1 -15
-3 -24 -6z"/>
<path d="M3167 3759 c-31 -51 -57 -95 -57 -99 0 -15 140 -92 156 -86 25 10 11
29 -44 61 -28 17 -52 33 -52 36 0 3 6 14 14 24 13 18 15 17 60 -9 43 -25 76
-29 76 -8 0 4 -15 16 -32 26 -57 33 -69 46 -57 67 13 25 19 24 78 -12 48 -30
71 -32 71 -5 0 12 -132 96 -149 96 -4 0 -33 -41 -64 -91z"/>
<path d="M1562 3718 c-7 -7 -12 -19 -12 -28 0 -21 48 -231 54 -238 3 -2 12 1
21 8 11 9 14 22 9 44 -5 29 -1 35 34 59 33 23 46 27 79 21 48 -7 63 8 31 31
-38 27 -189 115 -197 115 -4 0 -12 -5 -19 -12z m106 -96 c4 -12 -45 -44 -52
-34 -2 4 -8 25 -12 46 l-7 40 34 -22 c18 -11 35 -25 37 -30z"/>
<path d="M2380 3704 c-14 -2 -59 -9 -100 -15 -86 -12 -244 -61 -321 -99 -214
-107 -374 -246 -507 -442 -79 -115 -156 -301 -188 -450 -25 -113 -24 -398 0
-511 51 -235 170 -458 337 -632 407 -423 1085 -498 1579 -173 87 57 92 61 188
153 190 182 315 415 366 684 20 105 21 328 2 438 -77 436 -384 807 -807 973
-48 19 -172 53 -234 65 -41 7 -284 15 -315 9z m373 -38 c57 -14 132 -36 167
-49 425 -160 735 -544 807 -1000 14 -84 7 -319 -10 -410 -86 -431 -395 -793
-802 -940 -259 -93 -566 -95 -826 -6 -350 120 -633 404 -762 766 -87 243 -91
561 -10 808 31 98 151 330 182 355 3 3 19 22 35 43 64 87 222 227 309 276 20
12 52 29 70 40 65 37 220 93 320 116 149 35 375 35 520 1z"/>
<path d="M2195 3321 c-69 -25 -161 -73 -214 -111 -37 -27 -42 -34 -28 -42 10
-5 17 -18 17 -28 0 -11 5 -20 10 -20 21 0 8 -19 -48 -76 -136 -138 -224 -311
-253 -497 -6 -43 -15 -79 -19 -82 -19 -11 -65 -13 -78 -2 -13 10 -14 2 -8 -68
22 -246 108 -437 272 -600 131 -131 267 -212 429 -254 85 -23 152 -28 125 -11
-8 5 -10 10 -4 10 15 0 26 40 11 40 -8 0 -7 3 1 9 8 4 13 12 13 17 -1 5 54 12
121 16 68 5 134 13 148 20 14 6 31 10 38 9 8 -1 20 3 29 10 8 7 22 14 31 15
50 7 83 24 75 38 -3 6 -3 8 2 4 15 -14 195 100 195 124 0 5 5 6 10 3 6 -3 10
-1 10 5 0 7 6 10 13 7 6 -2 26 5 42 17 27 18 29 18 15 1 -13 -17 -13 -18 1
-13 9 3 22 2 30 -3 12 -8 12 -10 -1 -8 -27 3 -40 -1 -40 -11 0 -6 11 -8 25 -6
15 3 23 1 20 -5 -4 -5 -10 -7 -14 -5 -4 3 -8 -2 -8 -11 0 -18 46 31 96 102 75
107 144 289 157 419 6 55 4 64 -12 71 -27 12 -54 14 -54 3 0 -5 -4 -7 -9 -4
-5 4 -12 0 -14 -6 -3 -7 -3 1 0 18 8 51 -24 235 -57 319 -45 116 -173 305
-206 305 -8 0 -14 5 -14 11 0 18 -88 90 -136 110 -16 7 -37 19 -46 27 -19 15
-123 46 -238 69 -80 16 -264 13 -328 -6 -30 -9 -32 -9 -20 6 10 13 10 17 1 20
-15 5 -17 33 -3 33 6 0 10 7 10 15 0 20 -32 18 -95 -4z m317 -127 c7 -57 -20
-55 -40 4 -10 30 -10 32 12 32 20 0 25 -6 28 -36z m123 -74 c17 -4 22 -8 13
-9 -10 -1 -15 -7 -12 -14 4 -11 -12 -14 -73 -15 -72 -1 -76 0 -53 13 16 9 19
15 10 15 -10 1 -9 4 5 10 24 10 69 10 110 0z m62 -16 c-3 -3 -12 -4 -19 -1 -8
3 -5 6 6 6 11 1 17 -2 13 -5z m112 -34 c21 -10 41 -16 45 -13 3 4 6 -1 6 -10
0 -21 -12 -21 -70 -1 -25 9 -52 18 -60 21 -13 4 -13 5 0 13 22 14 36 12 79
-10z m-502 -16 c-3 -4 -2 -15 3 -25 8 -14 4 -21 -23 -38 -52 -32 -150 -140
-190 -209 -43 -73 -71 -156 -87 -259 -8 -48 -16 -73 -25 -73 -7 0 -16 -6 -19
-12 -8 -18 0 143 9 167 6 18 5 18 -7 4 -19 -23 -112 -15 -129 12 -6 10 -9 10
-9 2 0 -7 -4 -13 -10 -13 -18 0 -10 44 25 130 32 78 33 86 18 98 -9 6 -20 12
-25 12 -4 0 -8 7 -8 15 0 8 7 15 16 15 8 0 13 -4 10 -8 -2 -4 4 -9 15 -10 47
-4 48 -5 38 -29 -8 -23 -8 -23 16 -7 14 9 22 20 20 25 -3 4 10 2 30 -6 19 -9
35 -12 35 -8 0 4 5 2 11 -4 15 -15 50 1 69 30 12 20 23 84 13 73 -3 -2 -25 3
-49 11 -38 13 -47 13 -62 2 -16 -13 -16 -12 -2 6 20 27 61 64 85 77 17 9 18 9
8 -3 -10 -12 1 -14 70 -14 67 1 88 5 117 23 35 22 49 28 37 16z m343 -14 c0
-5 -19 -10 -42 -12 -41 -3 -42 -4 -74 -75 -18 -40 -29 -75 -25 -77 4 -3 21 28
36 69 l29 75 218 0 c163 0 217 3 216 12 -2 6 6 13 17 15 11 1 14 0 8 -3 -20
-9 -15 -24 7 -24 11 0 20 -3 20 -6 0 -5 -48 -75 -125 -182 -18 -25 -133 -178
-158 -209 -7 -10 4 -13 49 -11 50 1 53 2 17 5 -24 2 -43 7 -43 10 0 9 43 68
72 97 16 16 28 23 26 15 -2 -8 -7 -17 -11 -20 -4 -3 -5 -13 -1 -23 4 -10 10
-13 13 -8 6 9 116 72 126 72 3 0 5 -6 5 -14 0 -8 -26 -29 -57 -48 -44 -26 -57
-40 -56 -56 2 -12 -4 -22 -15 -25 -9 -3 25 -6 76 -7 121 -3 116 -2 120 -22 2
-13 -3 -18 -17 -18 -12 0 -21 5 -21 12 0 6 -9 3 -20 -7 -30 -27 -24 -34 15
-22 19 6 38 7 42 4 11 -12 -4 -18 -48 -22 -35 -2 -49 -10 -74 -37 -102 -116
-134 -157 -124 -160 8 -3 6 -16 -5 -43 -12 -28 -19 -36 -28 -27 -8 8 -7 18 6
36 22 34 6 33 -19 -1 -11 -14 -25 -31 -31 -37 -5 -6 -38 -43 -72 -82 -54 -64
-58 -71 -32 -61 16 6 27 14 24 18 -2 4 0 10 6 14 5 3 10 1 10 -5 0 -10 51 20
75 45 31 32 34 45 3 17 -46 -43 -60 -20 -18 29 16 19 29 29 30 22 0 -12 17
-12 37 0 7 4 19 30 27 58 20 66 28 77 37 53 7 -17 8 -16 8 6 1 34 28 70 52 70
10 0 19 7 19 15 0 8 5 15 10 15 6 0 9 3 9 8 -3 16 2 23 11 17 8 -5 7 -11 0
-20 -19 -22 -2 -35 46 -35 33 0 44 -4 44 -16 0 -8 -4 -13 -9 -9 -6 3 -14 -3
-20 -12 -6 -10 -11 -12 -11 -5 0 7 -13 12 -32 12 -25 0 -29 -3 -18 -10 11 -7
6 -10 -22 -10 -35 0 -38 -2 -44 -36 -6 -30 -10 -35 -29 -32 -17 4 -26 -3 -41
-31 -41 -80 -79 -124 -138 -163 -38 -24 -69 -38 -83 -35 -16 3 -31 -8 -59 -41
-20 -24 -33 -47 -28 -51 15 -10 18 -121 4 -121 -8 0 -11 14 -8 40 3 32 0 40
-12 38 -10 -2 -17 -19 -20 -48 l-5 -45 -43 -1 c-32 0 -49 -7 -65 -25 -12 -13
-16 -19 -9 -13 8 7 48 9 111 6 145 -7 235 20 354 104 26 19 47 30 47 26 0 -4
-28 -26 -62 -48 -104 -67 -176 -90 -288 -96 -36 -2 -67 -6 -70 -9 -8 -11 -87
-17 -102 -8 -8 5 -21 -1 -36 -19 l-23 -27 15 37 c12 29 12 36 1 32 -23 -9
-108 42 -179 108 -38 34 -73 62 -79 60 -5 -2 -7 4 -4 12 7 18 -3 28 -17 17
-10 -8 -65 -14 -108 -12 -10 1 -27 19 -38 41 -21 42 -20 44 27 40 12 -1 31 4
42 10 16 8 21 8 21 -2 0 -9 3 -9 11 -1 8 8 8 17 -1 34 -11 24 -11 24 7 4 10
-11 25 -19 33 -18 9 2 33 -24 60 -63 54 -80 109 -130 188 -172 48 -26 61 -29
65 -18 4 9 -1 17 -12 21 -35 11 -112 66 -106 75 4 6 3 9 -2 8 -4 -2 -8 2 -8 7
0 5 4 9 8 7 5 -1 6 2 2 8 -5 8 -11 8 -20 0 -18 -15 -30 -7 -66 42 -33 46 -36
58 -14 58 13 0 14 4 5 20 -7 12 -7 20 -1 20 5 0 8 8 6 18 -2 9 -7 28 -10 42
-4 14 6 3 20 -25 37 -70 46 -79 57 -63 7 9 8 7 4 -7 -5 -19 23 -65 40 -65 4 0
13 8 21 18 13 15 13 14 2 -7 -10 -22 -8 -28 20 -53 40 -36 58 -35 66 2 4 17
11 30 16 30 25 0 54 48 105 175 30 75 53 139 51 141 -2 3 -12 -16 -21 -41 -15
-39 -22 -45 -46 -45 -39 0 -47 18 -15 30 20 7 26 16 23 33 -2 12 -7 22 -13 21
-5 0 -16 6 -23 13 -7 7 -21 13 -30 13 -15 0 -15 -2 -2 -10 9 -6 10 -10 3 -10
-6 0 -15 5 -18 10 -4 6 -12 10 -18 9 -24 -3 -37 1 -37 11 0 6 40 10 99 10 87
0 100 -2 103 -17 3 -15 5 -14 10 5 6 22 6 22 -123 22 -71 0 -129 3 -129 6 0 3
5 14 11 25 8 16 7 23 -6 33 -14 10 -15 17 -7 32 6 10 13 27 16 37 10 32 28 19
21 -15 l-6 -33 15 33 c9 19 13 45 9 62 -3 20 -1 30 6 30 8 0 10 -8 5 -22 -12
-42 9 -9 29 44 11 29 20 66 20 81 0 16 3 23 7 17 4 -7 11 -1 18 17 12 31 25
85 16 66 -3 -7 -12 -13 -20 -13 -9 0 -12 5 -9 10 8 13 -2 12 -45 -3 -89 -31
-167 -104 -207 -194 -13 -31 -23 -57 -21 -58 2 -1 22 -12 45 -24 46 -23 58
-46 49 -95 -7 -35 -40 -74 -50 -58 -3 5 1 15 9 22 8 7 15 23 15 37 0 24 0 24
-21 5 -26 -25 -57 -18 -70 15 -12 33 -11 44 4 42 23 -3 37 1 37 11 0 18 -28
11 -59 -16 -17 -14 -35 -24 -40 -22 -17 6 10 50 38 61 22 8 31 19 35 43 8 41
73 141 114 176 18 15 50 37 72 49 22 13 40 25 40 28 0 3 21 7 47 9 26 1 52 7
58 13 7 8 1 9 -22 4 -37 -7 -48 13 -13 22 16 4 20 14 20 49 0 47 -4 50 -45 34
-20 -8 -24 -14 -17 -23 15 -19 24 -57 13 -57 -5 0 -12 14 -16 30 -5 21 -13 30
-26 30 -13 0 -18 -4 -13 -12 4 -7 3 -8 -4 -4 -6 4 -30 -5 -52 -20 -37 -25 -39
-28 -25 -44 22 -24 18 -36 -5 -15 -11 10 -22 16 -23 14 -39 -49 -57 -79 -48
-79 6 0 11 -5 11 -10 0 -6 -8 -10 -17 -8 -21 4 -79 -108 -89 -168 -5 -34 -11
-44 -37 -55 -18 -8 -37 -25 -44 -39 -13 -25 -13 -25 -13 10 0 45 26 152 47
199 50 107 193 270 227 258 6 -2 17 3 24 12 11 14 11 14 6 -1 -5 -15 0 -18 35
-18 44 0 67 23 50 52 -7 12 -4 17 12 21 25 7 54 -17 43 -34 -5 -8 -3 -9 5 -4
7 4 11 16 8 26 -4 14 1 21 21 25 15 3 30 7 35 7 20 5 97 -6 97 -13z m129 -6
c2 -2 -24 -4 -58 -4 -38 0 -60 4 -56 10 5 9 104 4 114 -6z m161 5 c0 -5 -16
-9 -35 -9 -19 0 -35 4 -35 8 0 4 16 8 35 9 19 1 35 -3 35 -8z m149 -279 c62
-117 93 -273 67 -346 l-13 -39 -8 100 c-8 108 -35 204 -79 280 -16 27 -32 43
-38 39 -7 -5 -8 -2 -3 5 4 7 -2 22 -15 36 -15 16 -20 30 -16 42 6 15 12 12 41
-22 19 -22 47 -65 64 -95z m-801 10 c-33 -28 -52 -31 -42 -7 6 17 56 47 67 40
5 -3 -6 -18 -25 -33z m182 11 c0 -6 -4 -13 -10 -16 -5 -3 -10 1 -10 9 0 9 5
16 10 16 6 0 10 -4 10 -9z m-80 -17 c0 -8 5 -12 10 -9 6 3 10 -2 10 -12 0 -11
5 -24 10 -29 7 -7 8 -19 1 -37 -11 -27 -24 -37 -19 -14 1 6 -3 21 -9 32 -17
32 -26 85 -14 85 6 0 11 -7 11 -16z m-200 -107 c0 -18 -27 -53 -35 -46 -7 8
15 59 27 59 4 0 8 -6 8 -13z m54 -55 c2 -4 -4 -8 -15 -8 -10 0 -19 4 -19 8 0
4 6 8 14 8 8 0 17 -4 20 -8z m-437 -24 c-3 -8 -6 -5 -6 6 -1 11 2 17 5 13 3
-3 4 -12 1 -19z m-27 -137 c0 -15 -8 -20 -40 -23 -35 -3 -40 -1 -40 17 0 17 7
21 40 23 34 2 40 0 40 -17z m1220 -141 c30 -12 61 -23 69 -26 8 -2 11 -7 8
-10 -7 -8 -147 36 -147 47 0 13 8 12 70 -11z m-737 -87 c7 1 11 -3 10 -10 -6
-28 81 -82 175 -109 7 -2 10 -9 7 -14 -5 -8 -12 -7 -22 2 -9 7 -18 12 -20 10
-2 -1 -25 7 -51 18 -29 13 -48 17 -50 10 -2 -5 -8 -10 -14 -10 -13 0 -78 50
-78 61 0 17 27 9 50 -16 13 -14 28 -25 34 -25 6 0 -3 13 -21 28 -34 29 -83 98
-83 116 0 6 11 -6 25 -27 14 -20 31 -36 38 -34z m44 37 c1 -11 -2 -22 -6 -24
-6 -4 -7 26 -2 42 3 8 7 -1 8 -18z m557 -58 c-17 -27 -98 -85 -102 -73 -6 18
90 113 102 101 7 -7 7 -16 0 -28z m104 -9 c36 -20 61 -38 55 -40 -10 -4 -133
63 -133 72 0 10 13 4 78 -32z m-473 -2 c-3 -12 -11 -19 -16 -16 -5 4 -5 14 2
26 13 26 23 18 14 -10z m407 -66 c18 -25 38 -45 45 -45 15 0 17 -16 4 -25 -12
-7 -122 95 -115 107 12 19 36 5 66 -37z m-999 -42 c2 -14 1 -21 -3 -16 -12 12
-50 82 -50 91 1 15 49 -53 53 -75z m898 -66 c35 -68 23 -69 -15 -2 -27 50 -46
101 -26 75 6 -8 24 -41 41 -73z m229 79 c0 -2 -8 -10 -17 -17 -16 -13 -17 -12
-4 4 13 16 21 21 21 13z m-1130 -88 c-21 -17 -50 -24 -50 -13 0 10 34 42 50
47 24 8 25 -14 0 -34z m792 30 c0 -7 2 -17 2 -23 1 -5 5 -16 9 -22 5 -7 5 -17
2 -23 -3 -5 -1 -10 4 -10 6 0 11 -5 11 -11 0 -5 -5 -7 -12 -3 -7 5 -9 2 -5 -8
3 -9 3 -19 0 -22 -7 -7 -28 48 -37 99 -6 28 -4 35 9 35 8 0 16 -6 17 -12z
m288 -1 c0 -2 -12 -14 -27 -28 l-28 -24 24 28 c23 25 31 32 31 24z"/>
<path d="M2515 3020 c-3 -5 1 -10 9 -10 9 0 16 5 16 10 0 6 -4 10 -9 10 -6 0
-13 -4 -16 -10z"/>
<path d="M2565 2953 c-9 -27 -28 -76 -41 -110 -13 -34 -24 -68 -24 -75 0 -8
-4 -18 -9 -23 -5 -6 -35 -75 -66 -155 -31 -80 -59 -151 -62 -158 -4 -10 18
-13 108 -12 146 1 139 2 139 -13 0 -7 -21 -64 -46 -127 -79 -197 -95 -243 -80
-231 9 8 16 8 20 2 4 -6 -5 -18 -19 -27 -32 -21 -57 -67 -48 -90 5 -13 3 -15
-7 -9 -8 5 -11 4 -6 -3 3 -5 0 -12 -6 -15 -7 -2 -9 -8 -5 -13 9 -10 116 104
117 125 0 8 3 12 6 8 3 -3 20 10 36 29 41 46 25 67 -21 28 -18 -14 -35 -24
-38 -20 -7 7 35 43 60 51 9 4 17 13 17 20 0 8 5 17 11 21 8 5 10 -1 7 -20 -6
-32 0 -33 29 -2 15 15 20 30 17 47 -5 19 -4 21 5 9 9 -13 16 -10 44 20 18 19
44 49 57 66 14 18 65 78 114 133 87 100 88 102 70 122 -18 20 -42 22 -89 5
-13 -5 -11 -2 5 8 14 8 36 15 50 16 15 0 32 6 39 13 11 10 13 9 8 -4 -3 -9 -1
-22 3 -29 6 -10 15 -8 38 11 17 13 31 27 31 31 1 3 -62 7 -139 7 -107 1 -140
-2 -140 -11 0 -10 -3 -9 -9 1 -6 9 -5 24 2 38 8 19 8 29 -2 45 -7 11 -8 17 -2
13 7 -4 11 7 11 30 0 28 5 38 25 47 14 6 25 15 25 19 0 6 65 49 76 49 14 0 0
-19 -23 -29 -15 -7 -33 -21 -41 -32 -7 -10 -22 -19 -33 -19 -16 0 -19 -7 -19
-52 l0 -53 29 31 c16 17 36 44 44 60 9 16 26 40 40 54 26 28 157 207 157 215
0 15 -54 2 -71 -17 -10 -13 -18 -17 -19 -10 0 6 5 12 10 12 6 0 10 5 10 10 0
6 -70 10 -189 10 l-188 0 -18 -47z m371 -49 c-4 -14 -9 -24 -12 -21 -3 2 -2
17 2 31 3 15 9 25 11 22 3 -3 2 -17 -1 -32z m-30 -72 c-11 -11 -16 -12 -16 -4
0 18 24 43 29 30 2 -5 -4 -17 -13 -26z m-115 -310 c16 6 32 8 35 5 3 -3 -8 -8
-25 -12 -17 -4 -38 -16 -46 -28 -14 -20 -14 -19 -13 17 1 26 4 33 10 22 7 -12
14 -13 39 -4z m-71 -77 c-7 -9 -15 -13 -18 -10 -3 2 1 11 8 20 7 9 15 13 18
10 3 -2 -1 -11 -8 -20z m24 -137 c6 -26 4 -28 -23 -28 -18 0 -34 -7 -40 -17
-12 -20 -14 -13 -5 11 3 9 17 16 31 16 23 0 24 2 19 48 -6 46 2 34 18 -30z
m-89 -87 c-3 -6 -13 -11 -21 -11 -8 0 -19 -10 -24 -22 -6 -17 -9 -18 -9 -6 -1
9 11 26 26 37 26 21 41 22 28 2z"/>
<path d="M2500 2971 c0 -6 5 -13 10 -16 6 -3 10 1 10 9 0 9 -4 16 -10 16 -5 0
-10 -4 -10 -9z"/>
<path d="M2540 1995 c-8 -9 -8 -15 -2 -15 12 0 26 19 19 26 -2 2 -10 -2 -17
-11z"/>
<path d="M2410 1975 c0 -8 2 -15 4 -15 2 0 6 7 10 15 3 8 1 15 -4 15 -6 0 -10
-7 -10 -15z"/>
<path d="M2492 1938 c-17 -17 -15 -38 3 -38 9 0 15 9 15 25 0 29 -1 30 -18 13z"/>
<path d="M2397 1933 c-4 -3 -7 -11 -7 -17 0 -6 5 -5 12 2 6 6 9 14 7 17 -3 3
-9 2 -12 -2z"/>
<path d="M2891 3276 c2 -2 15 -9 29 -15 24 -11 24 -11 6 3 -16 13 -49 24 -35
12z"/>
<path d="M3100 1786 c0 -2 8 -10 18 -17 15 -13 16 -12 3 4 -13 16 -21 21 -21
13z"/>
<path d="M2962 1665 c-6 -14 -8 -25 -3 -25 8 0 23 41 17 47 -1 2 -8 -8 -14
-22z"/>
<path d="M3381 3613 c-39 -42 -71 -80 -71 -84 0 -3 7 -12 15 -19 13 -11 20 -9
43 13 25 24 29 25 44 11 11 -11 14 -28 10 -60 -3 -34 0 -49 14 -65 17 -19 19
-19 25 -2 4 10 8 33 8 51 1 30 4 32 34 32 42 0 77 35 77 75 0 22 -13 41 -51
77 -28 26 -57 48 -64 48 -7 0 -45 -35 -84 -77z m133 -14 c21 -24 24 -34 16
-50 -13 -24 -48 -24 -77 0 -27 23 -29 38 -6 63 23 25 37 23 67 -13z"/>
<path d="M1400 3586 c-9 -12 -4 -30 24 -92 20 -42 34 -79 31 -82 -2 -3 -39 8
-81 23 -69 25 -77 26 -92 12 -9 -9 -13 -20 -9 -24 4 -3 57 -23 119 -44 97 -33
113 -36 125 -23 17 16 18 12 -51 162 -22 45 -42 82 -46 82 -4 0 -13 -7 -20
-14z"/>
<path d="M3595 3438 c-81 -47 -82 -145 -3 -213 41 -34 41 -34 70 -17 16 9 36
24 44 33 13 15 12 20 -11 48 -32 37 -48 40 -40 8 4 -15 0 -28 -11 -37 -14 -13
-19 -11 -40 13 -40 47 -29 104 25 127 26 10 35 10 63 -7 21 -12 37 -32 44 -53
8 -23 19 -36 33 -38 44 -7 12 88 -43 126 -35 24 -98 29 -131 10z"/>
<path d="M1220 3365 c-13 -16 -7 -41 22 -95 l18 -35 -60 -3 c-46 -2 -62 -7
-70 -21 -5 -10 -6 -21 -3 -25 3 -3 40 -6 82 -6 59 0 84 -5 109 -20 27 -16 37
-18 48 -9 22 18 17 33 -16 53 -21 12 -44 43 -70 97 -22 43 -42 79 -44 79 -2 0
-9 -7 -16 -15z"/>
<path d="M3796 3174 c-33 -51 -61 -81 -83 -92 -34 -16 -39 -27 -24 -50 7 -11
14 -11 42 3 29 16 42 16 117 6 46 -7 87 -9 90 -6 15 15 -19 41 -63 47 -79 11
-79 12 -40 68 39 56 40 59 23 83 -11 15 -19 7 -62 -59z"/>
<path d="M1077 3104 c-17 -18 -6 -42 23 -48 40 -8 47 -28 24 -77 -14 -33 -22
-39 -38 -34 -68 19 -76 18 -76 -6 0 -21 12 -29 101 -63 84 -33 102 -37 110
-25 14 23 11 27 -31 49 -43 22 -42 14 -10 94 9 25 9 25 50 9 36 -14 43 -15 51
-2 5 8 8 18 6 22 -2 8 -150 76 -182 84 -11 2 -24 1 -28 -3z"/>
<path d="M1090 2398 c0 -96 23 -242 55 -353 30 -104 85 -237 100 -242 6 -2 19
3 28 10 17 12 15 19 -23 115 -53 131 -88 287 -96 429 l-7 113 -28 0 -29 0 0
-72z"/>
<path d="M3847 2463 c-4 -3 -7 -46 -7 -94 0 -144 -45 -334 -116 -488 -19 -41
-34 -77 -34 -81 0 -4 11 -12 24 -18 31 -14 33 -11 79 98 68 161 99 296 113
498 l7 92 -30 0 c-16 0 -33 -3 -36 -7z"/>
<path d="M1297 1736 c-18 -14 -17 -16 8 -55 25 -41 26 -41 50 -25 14 9 25 18
25 20 0 12 -46 74 -55 74 -5 -1 -18 -7 -28 -14z"/>
<path d="M3629 1704 c-12 -23 -12 -27 6 -40 27 -20 40 -17 53 10 9 21 8 27
-13 40 -31 20 -29 21 -46 -10z"/>
<path d="M1401 1591 c-23 -18 -23 -18 -5 -42 58 -75 224 -224 320 -288 59 -39
112 -71 119 -71 6 0 17 11 23 24 10 23 7 27 -58 65 -122 73 -226 163 -346 298
-29 33 -29 33 -53 14z"/>
<path d="M3547 1587 c-47 -71 -261 -257 -372 -322 -16 -10 -16 -13 -3 -39 l14
-28 87 59 c109 73 194 147 279 243 l68 75 -23 17 c-29 23 -32 22 -50 -5z"/>
<path d="M3038 1198 c-28 -10 -35 -31 -19 -57 7 -11 15 -11 45 -1 43 14 50 23
36 50 -12 22 -22 23 -62 8z"/>
<path d="M1928 1174 c-13 -27 -1 -44 33 -44 24 0 33 42 12 58 -24 17 -32 15
-45 -14z"/>
<path d="M2060 1124 c-6 -15 -9 -28 -7 -30 2 -2 50 -15 108 -30 90 -23 131
-27 298 -31 200 -5 241 -1 402 39 81 20 85 22 81 45 -6 33 -20 37 -73 20 -83
-27 -276 -57 -367 -57 -104 0 -301 31 -414 66 -13 4 -21 -3 -28 -22z"/>
</g>
</svg>
