<?xml version="1.0" standalone="no"?>
<!DOCTYPE svg PUBLIC "-//W3C//DTD SVG 20010904//EN"
 "http://www.w3.org/TR/2001/REC-SVG-20010904/DTD/svg10.dtd">
<svg version="1.0" xmlns="http://www.w3.org/2000/svg"
 width="400.000000pt" height="400.000000pt" viewBox="0 0 400.000000 400.000000"
 preserveAspectRatio="xMidYMid meet">

<g transform="translate(0.000000,400.000000) scale(0.100000,-0.100000)"
fill="#000000" stroke="none">
<path d="M2750 2231 l0 -61 -40 0 -40 0 0 -40 0 -40 40 0 40 0 0 -140 c0 -173
10 -204 69 -220 22 -6 58 -8 80 -4 40 6 41 8 41 45 0 37 -2 39 -24 33 -14 -3
-34 -3 -45 1 -20 6 -21 14 -21 146 l0 139 45 0 45 0 0 40 0 40 -47 0 -48 0 0
57 0 58 -47 3 -48 3 0 -60z"/>
<path d="M3030 2245 l0 -45 50 0 50 0 0 45 0 45 -50 0 -50 0 0 -45z"/>
<path d="M1298 2156 c4 -41 7 -46 28 -46 34 0 46 -24 105 -213 l53 -168 54 3
55 3 67 195 c37 107 70 205 74 218 7 21 5 22 -43 22 l-50 0 -25 -82 c-14 -46
-35 -120 -48 -165 -13 -46 -25 -83 -28 -83 -3 0 -23 62 -45 138 -33 115 -45
143 -75 175 -28 31 -45 40 -81 44 l-44 5 3 -46z"/>
<path d="M478 2168 c-57 -15 -88 -58 -88 -122 0 -86 26 -106 163 -125 84 -12
99 -23 95 -70 -3 -34 -5 -36 -51 -45 -60 -12 -98 0 -115 37 -11 23 -19 27 -58
27 -50 0 -55 -13 -29 -76 19 -47 67 -66 170 -67 128 -1 185 37 185 125 0 86
-29 112 -145 129 -92 13 -125 30 -125 63 0 34 30 56 79 56 52 0 81 -14 81 -40
0 -17 7 -20 51 -20 l52 0 -6 37 c-11 68 -72 104 -177 102 -25 -1 -62 -6 -82
-11z"/>
<path d="M1886 2170 c-41 -13 -84 -58 -96 -99 -13 -49 -13 -200 1 -242 27 -80
71 -102 201 -101 127 1 138 4 138 47 l0 34 -105 -2 c-119 -2 -141 9 -147 73
l-3 35 144 3 144 3 -7 70 c-10 112 -35 154 -105 178 -39 13 -123 13 -165 1z
m153 -96 c12 -15 21 -41 21 -60 l0 -34 -89 0 c-50 0 -92 4 -95 8 -9 15 13 86
30 99 10 7 39 13 65 13 39 0 51 -5 68 -26z"/>
<path d="M2417 2169 c-21 -5 -47 -14 -58 -19 -15 -9 -19 -7 -19 5 0 11 -12 15
-50 15 l-50 0 0 -221 0 -220 48 3 47 3 3 162 2 161 43 21 c51 25 76 26 103 7
17 -13 19 -31 24 -183 l5 -168 45 0 45 0 3 161 c3 177 -6 225 -48 255 -32 22
-94 30 -143 18z"/>
<path d="M3030 1950 l0 -220 50 0 50 0 0 220 0 220 -50 0 -50 0 0 -220z"/>
<path d="M3200 2131 c0 -37 1 -39 39 -45 32 -5 46 -15 80 -60 22 -31 41 -60
41 -65 0 -6 -29 -56 -65 -111 -36 -55 -65 -105 -65 -110 0 -6 22 -10 49 -10
l50 0 37 63 c58 96 53 94 93 29 54 -88 58 -92 107 -92 23 0 45 3 47 8 3 4 -28
54 -68 112 l-73 104 69 103 c38 56 69 105 69 108 0 3 -23 5 -50 5 l-51 0 -41
-65 c-23 -36 -45 -65 -49 -65 -5 0 -22 21 -40 46 -34 50 -92 83 -146 84 -32 0
-33 -2 -33 -39z"/>
</g>
</svg>
