<?xml version="1.0" standalone="no"?>
<!DOCTYPE svg PUBLIC "-//W3C//DTD SVG 20010904//EN"
 "http://www.w3.org/TR/2001/REC-SVG-20010904/DTD/svg10.dtd">
<svg version="1.0" xmlns="http://www.w3.org/2000/svg"
 width="1837.000000pt" height="683.000000pt" viewBox="0 0 1837.000000 683.000000"
 preserveAspectRatio="xMidYMid meet">

<g transform="translate(0.000000,683.000000) scale(0.100000,-0.100000)"
fill="#000000" stroke="none">
<path d="M2836 6750 c-3 -14 -26 -216 -52 -449 l-46 -424 76 -76 76 -76 1 113
c1 61 2 115 3 120 1 4 6 83 10 177 5 93 12 179 16 190 8 21 13 11 85 -157 15
-38 33 -68 38 -68 6 0 8 -3 4 -6 -3 -3 3 -28 13 -55 21 -53 20 -62 -22 -146
-12 -24 -26 -43 -32 -43 -6 0 -32 23 -58 52 l-47 53 -1 -120 0 -120 79 -79
c75 -75 80 -77 90 -57 7 11 9 21 6 21 -3 0 2 11 11 25 8 13 12 30 8 36 -4 7
-3 9 3 6 9 -6 64 106 62 127 0 5 3 12 8 15 22 15 33 69 33 157 0 91 -2 98 -41
177 -23 45 -45 84 -50 85 -5 2 -7 8 -3 13 3 5 0 9 -5 9 -6 0 -10 4 -9 9 2 5
-44 104 -102 221 l-105 211 -6 -48 c-5 -45 -6 -43 -7 23 -1 42 -8 78 -16 90
-14 18 -15 18 -20 -6z m65 -223 c-7 -9 -11 -94 -11 -257 0 -133 -2 -245 -5
-248 -3 -3 -5 107 -5 244 0 181 3 253 12 262 16 16 23 15 9 -1z"/>
<path d="M2277 6502 c-10 -10 -17 -30 -17 -44 0 -39 203 -488 242 -535 14 -18
28 -6 28 22 0 63 -140 552 -162 566 -23 15 -74 10 -91 -9z"/>
<path d="M1730 6351 c0 -24 203 -847 211 -856 5 -5 9 1 10 15 1 22 2 22 8 -5
6 -27 22 -36 194 -118 104 -48 191 -87 193 -85 2 2 11 105 21 227 l17 224 -54
50 -55 50 -5 -189 -6 -189 -2 197 -2 197 -257 245 c-142 135 -261 246 -265
246 -5 0 -8 -4 -8 -9z m361 -497 l140 -149 -7 -85 c-3 -47 -8 -87 -10 -89 -3
-3 -40 12 -83 34 l-79 38 -48 165 -49 166 -6 -85 c-3 -57 -5 -28 -5 91 0 96 1
150 3 119 l4 -55 140 -150z"/>
<path d="M1320 5888 l0 -73 153 -155 152 -155 3 54 c4 62 3 64 -149 269 -89
118 -102 132 -129 132 l-30 0 0 -72z"/>
<path d="M1290 5934 c-19 -21 -16 -72 3 -92 16 -15 17 -12 17 46 0 34 -2 62
-4 62 -2 0 -9 -7 -16 -16z"/>
<path d="M2556 5809 c-4 -9 -31 -109 -61 -222 l-53 -205 22 -20 c11 -10 42
-33 69 -51 l47 -32 0 65 c0 36 -4 67 -9 71 -6 3 -6 18 0 38 5 17 10 68 11 112
1 64 3 70 6 30 l5 -50 12 45 c7 29 17 45 26 44 13 -1 136 -84 173 -115 10 -8
-42 -229 -54 -229 -4 0 -41 25 -84 55 l-76 55 0 -64 0 -65 105 -75 c58 -42
109 -76 114 -76 11 0 23 41 81 268 35 138 39 166 28 179 -11 14 -14 6 -19 -53
l-5 -69 -2 71 -2 70 -149 107 c-83 59 -152 107 -155 107 -3 0 -7 -12 -7 -27
-2 -22 -3 -19 -9 12 -4 29 -8 35 -14 24z"/>
<path d="M3192 5628 c-16 -16 -15 -39 3 -62 14 -18 15 -16 15 27 0 51 -1 52
-18 35z"/>
<path d="M826 5602 c-6 -10 480 -741 497 -747 17 -6 440 -46 444 -42 5 6 -114
428 -123 437 -8 7 -124 59 -281 126 l-33 14 0 -70 0 -70 94 -47 95 -47 20 -76
c28 -103 29 -101 -26 -94 -139 15 -115 -2 -251 181 -68 90 -121 167 -119 170
3 2 41 -14 86 -36 44 -23 83 -41 86 -41 3 0 5 31 5 68 l0 68 -237 103 c-131
57 -241 106 -245 108 -4 2 -9 0 -12 -5z m821 -624 c-1 -40 -3 -8 -3 72 0 80 2
112 3 73 2 -40 2 -106 0 -145z"/>
<path d="M1640 5541 c0 -42 4 -53 26 -70 30 -24 54 -27 54 -8 0 13 -68 127
-76 127 -2 0 -4 -22 -4 -49z"/>
<path d="M3063 5456 c3 -8 3 -17 -1 -21 -4 -4 -7 -16 -7 -28 -1 -12 -4 -27 -8
-33 -11 -18 -37 -137 -31 -145 2 -4 0 -10 -6 -14 -5 -3 -10 -13 -10 -21 0 -15
20 -14 143 7 62 11 67 14 67 37 0 28 -125 232 -142 232 -6 0 -8 -6 -5 -14z"/>
<path d="M1790 5342 c1 -72 39 -415 47 -422 4 -5 34 -15 66 -23 l57 -15 2 41
1 42 6 -44 6 -44 144 -39 c79 -22 146 -37 149 -33 6 5 -24 373 -34 426 -5 25
-14 29 -122 59 -64 17 -125 33 -134 36 -16 5 -18 -2 -18 -50 l0 -55 53 -15
c28 -8 64 -18 80 -22 38 -9 44 -24 52 -143 8 -102 8 -103 -14 -96 -11 3 -59
17 -107 30 -47 13 -88 26 -90 28 -5 5 -24 161 -24 201 0 23 3 27 20 23 18 -5
20 0 20 52 l0 57 -80 21 -80 21 0 -36z"/>
<path d="M2385 5198 c3 -18 12 -87 20 -152 8 -66 16 -120 18 -122 7 -7 166 93
167 104 0 7 5 10 10 7 18 -11 32 5 19 21 -10 12 -14 12 -20 2 -7 -10 -9 -9 -9
3 0 15 -188 169 -205 169 -3 0 -3 -15 0 -32z"/>
<path d="M576 5076 c-30 -30 -34 -76 -8 -98 39 -36 458 -232 520 -244 55 -11
38 20 -45 84 -129 97 -387 270 -415 277 -21 5 -33 1 -52 -19z"/>
<path d="M3136 5077 c-24 -24 -27 -59 -10 -107 3 -8 8 -28 10 -45 3 -16 11
-52 19 -80 7 -27 21 -87 31 -132 9 -46 21 -83 26 -83 5 0 7 103 6 233 l-3 232
-27 3 c-19 2 -35 -5 -52 -21z"/>
<path d="M2916 5032 c-2 -4 -5 -48 -7 -97 l-3 -90 63 -149 c99 -236 133 -298
147 -262 14 35 -111 553 -141 586 -18 20 -50 27 -59 12z"/>
<path d="M2876 5008 c-20 -28 -19 -43 4 -93 l19 -40 0 78 c1 42 -1 77 -3 77
-3 0 -12 -10 -20 -22z"/>
<path d="M2645 4915 c-14 -13 -25 -29 -25 -36 0 -22 214 -383 272 -458 18 -24
18 -24 18 44 0 57 -7 85 -41 169 -79 192 -120 281 -136 294 -26 19 -62 14 -88
-13z"/>
<path d="M2429 4781 c-16 -16 -29 -36 -29 -45 0 -23 194 -259 204 -249 3 4 6
0 6 -9 0 -8 41 -58 91 -111 90 -96 127 -120 114 -74 -7 25 -111 208 -173 306
l-40 64 -5 -34 c-3 -30 -4 -29 -5 10 -3 67 -75 171 -120 171 -7 0 -27 -13 -43
-29z"/>
<path d="M1891 4623 c40 -76 73 -139 74 -140 2 -4 155 181 155 187 0 4 -26 14
-57 23 -32 9 -66 19 -75 22 -14 6 -17 -1 -21 -42 l-3 -48 -2 50 -2 50 -60 18
c-32 9 -64 17 -70 17 -6 0 22 -62 61 -137z"/>
<path d="M1545 4725 c-5 -2 -54 -7 -107 -10 -89 -6 -97 -9 -101 -28 -4 -21 -4
-21 -6 2 -1 19 -5 22 -23 17 -13 -3 -38 -6 -55 -6 -18 0 -33 -5 -33 -11 0 -12
178 -390 190 -402 9 -10 441 21 453 32 4 4 -36 98 -90 209 l-97 202 -60 -1
c-34 0 -65 -2 -71 -4z m83 -142 l17 -36 6 39 c6 37 6 36 8 -16 1 -30 10 -75
21 -99 25 -54 25 -61 0 -61 -15 0 -20 -7 -21 -27 -2 -26 -2 -26 -6 -4 -5 23
-6 24 -89 18 l-85 -5 -50 100 c-28 55 -48 103 -44 106 5 6 115 18 188 21 34 1
39 -2 55 -36z"/>
<path d="M2232 4617 c-32 -34 -28 -67 13 -107 l35 -34 0 82 c0 90 -9 101 -48
59z"/>
<path d="M2290 4552 l0 -87 141 -120 c78 -66 147 -124 155 -128 11 -6 14 2 14
39 0 43 -5 54 -52 108 -148 172 -232 265 -244 270 -11 4 -14 -12 -14 -82z"/>
<path d="M3216 4593 c9 -38 14 -42 14 -10 0 14 -5 29 -10 32 -7 4 -8 -3 -4
-22z"/>
<path d="M235 4581 c-4 -7 645 -495 710 -533 6 -4 95 16 199 43 104 27 190 49
192 49 2 0 4 21 4 48 0 44 -7 57 -95 182 -53 74 -101 140 -108 147 -14 13 -40
15 -477 43 -173 11 -338 22 -367 25 -28 3 -54 1 -58 -4z m629 -168 l169 -18
53 -70 c28 -38 49 -73 45 -77 -3 -3 -41 -16 -85 -27 l-79 -20 -166 111 c-91
61 -170 115 -176 121 -7 6 3 8 30 4 22 -3 116 -14 209 -24z"/>
<path d="M2921 4439 c-1 -39 4 -60 14 -69 27 -22 29 -1 8 63 l-21 62 -1 -56z"/>
<path d="M2061 4414 c-26 -33 -27 -58 -3 -82 22 -22 218 -147 362 -230 176
-102 209 -94 88 22 -40 38 -139 124 -221 192 -162 137 -187 147 -226 98z"/>
<path d="M2610 4241 c0 -31 6 -44 26 -60 27 -21 54 -28 54 -13 0 11 -59 100
-71 108 -5 3 -9 -13 -9 -35z"/>
<path d="M6490 4160 l0 -120 130 0 130 0 0 120 0 120 -130 0 -130 0 0 -120z"/>
<path d="M3188 4173 l-128 -77 0 -103 0 -103 -60 0 -60 0 0 -105 0 -105 60 0
60 0 0 -227 c1 -455 15 -522 124 -578 53 -27 68 -30 150 -29 55 0 114 8 149
18 52 15 58 20 54 39 -3 12 -9 58 -12 103 l-7 80 -57 -14 c-67 -16 -106 -5
-121 33 -6 15 -10 145 -10 301 l0 274 95 0 95 0 0 105 0 105 -95 0 -95 0 0
180 c0 99 -3 180 -7 179 -5 0 -65 -34 -135 -76z"/>
<path d="M5978 4174 l-128 -76 0 -104 0 -104 -60 0 -60 0 0 -105 0 -105 59 0
59 0 4 -327 c5 -341 8 -365 51 -427 11 -16 45 -40 76 -54 48 -22 70 -26 146
-26 52 1 113 8 146 17 l55 16 -12 103 c-7 57 -13 104 -13 105 -1 0 -22 -5 -48
-13 -27 -8 -60 -12 -75 -8 -56 12 -58 22 -58 331 l0 283 90 0 90 0 0 105 0
105 -90 0 -90 0 0 180 c0 99 -3 180 -7 180 -5 0 -65 -34 -135 -76z"/>
<path d="M1926 4198 c-21 -30 -20 -71 2 -90 40 -34 42 -32 42 41 0 77 -14 92
-44 49z"/>
<path d="M1982 4148 l3 -73 145 -62 c80 -35 148 -63 153 -63 4 0 7 22 7 49 l0
49 -145 86 c-80 47 -150 86 -156 86 -6 0 -9 -28 -7 -72z"/>
<path d="M1350 4183 c0 -22 5 -33 14 -33 25 0 27 17 6 41 l-19 24 -1 -32z"/>
<path d="M1583 4141 c-61 -3 -114 -9 -117 -12 -4 -3 39 -47 93 -98 l100 -92 4
53 3 53 2 -63 c1 -43 6 -62 13 -60 10 3 89 199 89 221 0 4 -17 6 -37 5 -21 -1
-88 -4 -150 -7z"/>
<path d="M1121 3959 c-107 -49 -199 -93 -203 -97 -9 -9 305 -322 323 -322 6 0
33 10 60 21 48 21 49 22 51 68 l1 46 6 -42 6 -42 139 64 c76 36 141 67 144 70
8 7 -309 325 -323 324 -5 0 -98 -40 -204 -90z m274 -119 l79 -79 -57 -26 c-36
-17 -57 -33 -57 -43 0 -13 -2 -14 -9 -4 -7 12 -14 11 -39 -2 -17 -9 -37 -16
-44 -16 -8 0 -49 36 -93 80 l-79 79 45 20 c24 10 69 30 99 44 30 14 60 26 65
26 6 1 46 -35 90 -79z"/>
<path d="M2300 3991 l0 -49 73 -25 c109 -39 117 -40 117 -24 0 17 -47 56 -132
110 l-58 37 0 -49z"/>
<path d="M187 4018 c-9 -7 -20 -27 -23 -45 -10 -50 25 -78 106 -87 382 -41
530 -47 530 -22 0 8 -17 21 -37 29 -83 33 -488 137 -534 137 -14 0 -33 -6 -42
-12z"/>
<path d="M1835 3965 c-29 -29 -33 -75 -7 -97 18 -17 219 -71 417 -113 188 -40
231 -32 133 25 -65 37 -76 37 -81 3 -4 -26 -4 -25 -6 5 -1 30 -6 35 -58 59
-93 41 -352 143 -364 143 -5 0 -21 -11 -34 -25z"/>
<path d="M3923 3895 c-110 -30 -186 -92 -230 -185 -43 -91 -48 -84 84 -107 65
-11 119 -16 121 -12 11 28 52 77 81 96 44 30 167 33 221 5 41 -20 70 -71 70
-124 0 -36 -1 -38 -52 -53 -29 -9 -114 -29 -188 -45 -211 -47 -256 -65 -317
-125 -63 -63 -88 -135 -80 -225 24 -273 371 -371 614 -174 l42 34 17 -55 18
-55 129 0 129 0 -7 23 c-42 131 -44 146 -44 443 -1 382 -12 435 -100 499 -76
56 -127 68 -301 71 -114 3 -169 0 -207 -11z m347 -607 c0 -102 -15 -146 -64
-193 -63 -61 -162 -83 -225 -50 -101 52 -111 184 -17 232 24 12 262 78 299 82
4 1 7 -32 7 -71z"/>
<path d="M4993 3895 c-80 -22 -126 -49 -176 -105 -38 -42 -96 -156 -85 -165
10 -8 234 -41 236 -34 11 27 52 77 81 96 44 30 167 33 221 5 41 -20 70 -71 70
-124 l0 -37 -67 -20 c-38 -10 -115 -29 -173 -41 -194 -40 -256 -65 -316 -125
-64 -64 -90 -135 -81 -225 24 -273 371 -371 614 -174 l42 34 17 -55 18 -55
128 0 c70 0 128 3 128 8 0 4 -10 32 -22 62 -21 52 -22 75 -28 405 -5 331 -7
353 -27 397 -36 80 -113 134 -221 157 -74 15 -295 13 -359 -4z m347 -607 c0
-131 -32 -191 -125 -234 -88 -41 -164 -29 -219 36 -20 24 -26 42 -26 79 0 87
32 109 225 157 72 18 133 32 138 33 4 1 7 -32 7 -71z"/>
<path d="M6490 3380 l0 -510 130 0 130 0 0 510 0 510 -130 0 -130 0 0 -510z"/>
<path d="M12680 3591 l0 -181 40 0 40 0 0 50 0 50 43 0 c40 0 43 -2 67 -48 23
-44 28 -47 68 -50 l43 -3 -36 57 c-36 56 -37 58 -17 73 43 35 56 115 28 170
-21 40 -59 53 -173 59 l-103 5 0 -182z m198 103 c16 -11 22 -25 22 -54 0 -50
-27 -70 -92 -70 l-48 0 0 70 0 70 48 0 c27 0 57 -7 70 -16z"/>
<path d="M13050 3590 l0 -180 135 0 135 0 0 30 0 30 -95 0 -95 0 0 45 0 45 79
0 c44 0 82 4 85 8 3 5 2 18 -1 30 -5 20 -12 22 -84 22 l-79 0 0 45 0 45 94 0
c84 0 94 2 91 18 -2 9 -4 23 -4 30 -1 9 -34 12 -131 12 l-130 0 0 -180z"/>
<path d="M13390 3590 l0 -180 35 0 34 0 3 117 3 117 85 -117 c78 -107 88 -117
118 -117 l32 0 0 180 0 180 -35 0 -35 0 0 -117 0 -117 -86 117 c-80 110 -88
117 -120 117 l-34 0 0 -180z"/>
<path d="M13790 3590 l0 -180 135 0 135 0 0 30 0 30 -95 0 -95 0 0 45 0 45 79
0 c67 0 79 3 83 18 10 36 -1 42 -83 42 l-79 0 0 45 0 44 93 3 c96 3 94 2 88
48 -1 6 -52 10 -131 10 l-130 0 0 -180z"/>
<path d="M14150 3593 l57 -178 39 -3 39 -3 35 126 c19 69 37 125 40 125 3 0
20 -56 39 -125 l34 -125 38 0 38 0 56 172 c30 94 55 175 55 180 0 4 -16 8 -35
8 -38 0 -33 12 -86 -189 -13 -50 -25 -78 -29 -70 -4 8 -22 69 -40 137 l-33
122 -36 0 -36 0 -29 -112 c-47 -184 -43 -182 -85 -28 l-37 135 -41 3 -41 3 58
-178z"/>
<path d="M14682 3598 c-40 -95 -72 -177 -72 -181 0 -5 17 -7 37 -5 33 3 39 7
47 36 l9 32 86 0 87 0 13 -35 c11 -32 16 -35 52 -35 21 0 39 1 39 3 0 1 -33
81 -73 177 l-73 175 -39 3 -40 3 -73 -173z m142 10 l25 -68 -56 0 c-53 0 -55
1 -49 24 9 35 46 120 50 115 3 -2 16 -34 30 -71z"/>
<path d="M15030 3590 l0 -182 113 3 c88 3 119 8 140 22 56 36 59 114 6 146
-29 18 -29 18 -10 35 28 26 35 69 17 104 -20 40 -34 44 -158 50 l-108 5 0
-183z m181 110 c21 -12 25 -50 7 -68 -7 -7 -34 -12 -60 -12 l-48 0 0 45 0 45
41 0 c22 0 49 -5 60 -10z m27 -152 c36 -36 -7 -78 -80 -78 l-48 0 0 45 0 45
58 0 c32 0 63 -5 70 -12z"/>
<path d="M15390 3590 l0 -180 115 0 115 0 0 35 0 35 -75 0 -75 0 0 145 0 145
-40 0 -40 0 0 -180z"/>
<path d="M15670 3590 l0 -180 135 0 135 0 0 30 0 30 -95 0 -95 0 0 45 0 45 79
0 c73 0 79 2 85 23 3 12 6 25 6 30 0 4 -38 7 -85 7 l-85 0 0 45 0 45 88 0 c49
0 91 2 94 5 3 3 3 17 0 30 l-4 25 -129 0 -129 0 0 -180z"/>
<path d="M16170 3590 l0 -180 135 0 135 0 0 30 0 30 -95 0 -95 0 0 45 0 45 79
0 c44 0 82 4 85 8 3 5 2 18 -1 30 -5 20 -12 22 -84 22 l-79 0 0 45 0 45 94 0
c84 0 94 2 91 18 -2 9 -4 23 -4 30 -1 9 -34 12 -131 12 l-130 0 0 -180z"/>
<path d="M16510 3590 l0 -180 35 0 34 0 3 117 3 117 85 -117 c78 -107 88 -117
118 -117 l32 0 0 180 0 180 -35 0 -35 0 0 -117 0 -117 -86 117 c-80 110 -88
117 -120 117 l-34 0 0 -180z"/>
<path d="M16910 3590 l0 -180 135 0 135 0 0 30 0 30 -95 0 -95 0 0 45 0 45 79
0 c67 0 79 3 83 18 10 36 -1 42 -83 42 l-79 0 0 45 0 44 93 3 c96 3 94 2 88
48 -1 6 -52 10 -131 10 l-130 0 0 -180z"/>
<path d="M17250 3591 l0 -181 40 0 40 0 0 50 0 50 43 0 c42 0 44 -1 67 -50 23
-49 24 -50 67 -50 49 0 49 -3 0 69 -30 44 -30 44 -10 60 30 23 43 54 43 101 0
52 -21 92 -57 109 -15 8 -74 16 -130 19 l-103 5 0 -182z m198 103 c15 -10 22
-25 22 -48 0 -51 -19 -68 -84 -74 l-56 -4 0 71 0 71 48 0 c27 0 57 -7 70 -16z"/>
<path d="M17734 3761 c-41 -10 -96 -44 -111 -69 -45 -74 -35 -179 22 -237 44
-44 117 -62 183 -45 82 20 92 31 92 105 0 36 -3 65 -7 66 -5 0 -18 2 -30 3
-17 2 -23 -3 -24 -18 -1 -12 -2 -34 -3 -49 -1 -35 -20 -47 -74 -47 -37 0 -50
6 -78 34 -29 29 -34 41 -34 79 0 96 91 148 180 102 30 -15 32 -15 50 7 22 27
18 36 -24 53 -44 18 -105 25 -142 16z"/>
<path d="M17970 3763 c0 -3 27 -57 60 -119 54 -102 60 -118 60 -173 l0 -61 40
0 40 0 0 62 c0 56 5 72 60 175 33 62 60 115 60 119 0 3 -16 4 -36 2 -35 -3
-39 -8 -78 -80 -23 -43 -43 -78 -46 -78 -3 0 -24 36 -48 80 -41 76 -45 80 -78
80 -19 0 -34 -3 -34 -7z"/>
<path d="M1766 3708 c-21 -30 -20 -71 2 -91 14 -13 143 -36 205 -37 4 0 7 27
7 60 0 57 -1 60 -27 66 -16 3 -44 10 -63 15 -63 16 -107 11 -124 -13z"/>
<path d="M1990 3640 l0 -58 43 -6 c23 -3 93 -9 155 -12 92 -6 112 -4 112 7 0
11 2 12 9 1 10 -16 73 -12 78 5 5 14 -137 60 -294 97 l-103 24 0 -58z"/>
<path d="M475 3555 l-380 -112 0 -28 0 -29 385 -113 c212 -62 392 -113 400
-113 13 0 128 71 165 102 5 5 57 40 113 79 57 39 100 75 95 79 -34 35 -361
250 -378 249 -11 -1 -191 -52 -400 -114z m441 -86 c32 -23 63 -45 68 -49 4 -4
-25 -30 -65 -57 l-74 -50 -198 47 c-109 26 -200 50 -204 53 -3 3 5 9 18 12 13
3 96 23 184 44 88 21 172 39 186 40 15 1 50 -16 85 -40z"/>
<path d="M1461 3470 c-112 -48 -131 -59 -115 -68 26 -13 263 -112 269 -112 3
0 5 54 5 120 0 90 -3 120 -12 119 -7 0 -73 -27 -147 -59z"/>
<path d="M1757 3459 c-56 -43 -22 -119 52 -119 50 0 404 28 454 36 32 5 37 9
37 34 0 32 0 32 -255 50 -77 5 -167 12 -201 15 -52 4 -65 2 -87 -16z"/>
<path d="M2310 3404 c0 -20 4 -25 16 -20 9 3 22 6 30 6 19 0 18 26 -2 34 -31
12 -44 6 -44 -20z"/>
<path d="M1072 3133 c-131 -125 -161 -158 -150 -168 14 -13 391 -185 405 -185
12 0 328 318 322 325 -8 8 -397 185 -406 185 -4 0 -81 -70 -171 -157z m246 7
c23 -10 42 -16 42 -12 0 4 4 2 8 -4 4 -6 29 -21 56 -33 l50 -22 -55 -56 c-116
-120 -97 -116 -233 -53 l-89 41 79 80 c43 43 83 79 89 79 5 0 29 -9 53 -20z"/>
<path d="M2220 3254 c-14 -2 -69 -6 -122 -9 l-98 -7 0 -60 c0 -44 3 -59 13
-56 6 3 74 20 150 39 l137 33 0 33 c0 35 -3 36 -80 27z"/>
<path d="M2310 3230 c0 -35 -2 -34 44 -15 41 17 46 30 14 39 -47 12 -58 8 -58
-24z"/>
<path d="M1877 3226 c-77 -9 -102 -16 -113 -31 -21 -28 -17 -60 10 -91 l23
-28 94 20 94 20 3 62 c2 34 -1 61 -5 61 -4 -1 -52 -7 -106 -13z"/>
<path d="M2260 3064 c-63 -13 -146 -32 -185 -42 l-70 -18 -6 -50 -6 -49 -1 48
c-1 26 -3 47 -4 47 -2 0 -37 -9 -78 -20 -77 -20 -100 -37 -100 -76 0 -29 37
-74 61 -74 38 0 476 183 532 222 63 44 24 48 -143 12z"/>
<path d="M12774 3003 c-52 -10 -78 -97 -43 -139 12 -14 10 -19 -13 -38 -56
-46 -63 -102 -20 -146 41 -40 91 -48 144 -21 42 20 42 20 63 1 25 -23 36 -25
53 -8 9 9 6 18 -14 39 -25 26 -25 28 -9 59 15 30 15 33 -1 51 -23 26 -30 24
-43 -12 l-10 -30 -32 36 c-31 34 -31 36 -13 50 11 8 22 15 26 15 10 0 38 55
38 74 0 42 -70 80 -126 69z m56 -48 c17 -20 5 -62 -21 -76 -25 -13 -39 1 -39
42 0 43 35 64 60 34z m-21 -195 c35 -44 34 -54 -5 -64 -53 -14 -90 35 -64 85
16 29 33 23 69 -21z"/>
<path d="M13200 2833 l57 -178 39 -3 39 -3 35 126 c19 69 38 125 42 125 5 0 8
-5 8 -11 0 -7 14 -63 31 -125 l31 -114 39 0 38 0 56 172 c30 94 55 175 55 180
0 4 -16 8 -35 8 -38 0 -33 12 -86 -189 -14 -52 -25 -78 -29 -70 -5 8 -22 69
-40 137 l-33 122 -36 0 -36 0 -29 -112 c-47 -184 -43 -182 -85 -28 l-37 135
-41 3 -41 3 58 -178z"/>
<path d="M13742 2838 c-40 -95 -72 -177 -72 -181 0 -5 17 -7 37 -5 33 3 39 7
47 36 l9 32 86 0 87 0 13 -35 c11 -32 16 -35 52 -35 21 0 39 1 39 3 0 1 -33
81 -73 177 l-74 175 -39 3 -39 2 -73 -172z m142 10 l25 -68 -56 0 c-53 0 -55
1 -49 24 9 35 46 120 50 115 3 -2 16 -34 30 -71z"/>
<path d="M14020 2978 l0 -33 50 3 50 4 0 -151 0 -151 40 0 40 0 0 151 0 151
50 -4 50 -3 0 33 0 32 -140 0 -140 0 0 -32z"/>
<path d="M14350 2830 l0 -180 135 0 135 0 0 30 0 30 -95 0 -95 0 0 45 0 45 79
0 c76 0 79 1 83 25 3 13 3 27 0 30 -3 3 -41 5 -84 5 l-78 0 0 45 0 45 90 0 90
0 0 30 0 30 -130 0 -130 0 0 -180z"/>
<path d="M14690 2831 l0 -181 40 0 40 0 0 50 0 50 43 0 c42 0 44 -1 67 -50 23
-49 24 -50 67 -50 l44 0 -37 57 c-35 56 -36 57 -16 72 43 35 56 115 28 170
-21 40 -59 53 -173 59 l-103 5 0 -182z m198 103 c15 -10 22 -25 22 -48 0 -51
-19 -68 -84 -74 l-56 -4 0 71 0 71 48 0 c27 0 57 -7 70 -16z"/>
<path d="M15289 3001 c-49 -16 -67 -31 -78 -64 -21 -63 9 -103 99 -132 66 -21
80 -31 80 -56 0 -42 -93 -44 -145 -5 -28 21 -32 20 -49 -12 -14 -27 -13 -29
12 -44 117 -69 262 -30 262 69 0 51 -25 75 -109 105 -68 25 -94 49 -74 69 16
16 73 13 118 -5 35 -15 35 -15 50 14 15 29 14 30 -13 44 -36 19 -119 28 -153
17z"/>
<path d="M15637 2998 c-111 -30 -159 -180 -91 -283 44 -68 172 -91 253 -45
112 64 115 246 4 308 -49 27 -114 35 -166 20z m139 -92 c29 -29 34 -41 34 -81
0 -40 -5 -52 -34 -81 -28 -28 -42 -34 -76 -34 -34 0 -48 6 -76 34 -29 29 -34
41 -34 81 0 40 5 52 34 81 28 28 42 34 76 34 34 0 48 -6 76 -34z"/>
<path d="M15950 2830 l0 -180 115 0 115 0 0 35 0 35 -75 0 -75 0 0 145 0 145
-40 0 -40 0 0 -180z"/>
<path d="M16222 2878 c4 -148 16 -186 68 -213 89 -46 195 -19 230 57 16 35 20
66 20 166 l0 122 -40 0 -40 0 0 -124 c0 -110 -2 -126 -21 -150 -27 -35 -86
-36 -117 -3 -20 21 -22 34 -22 150 l0 127 -41 0 -41 0 4 -132z"/>
<path d="M16589 2998 c0 -7 -2 -21 -4 -30 -3 -18 14 -23 78 -19 l27 1 0 -150
0 -150 40 0 40 0 0 149 0 149 48 -1 c46 0 47 0 50 31 l3 32 -140 0 c-106 0
-141 -3 -142 -12z"/>
<path d="M16920 2830 l0 -180 40 0 40 0 0 180 0 180 -40 0 -40 0 0 -180z"/>
<path d="M17177 2998 c-111 -30 -159 -180 -91 -283 44 -68 172 -91 253 -45
112 64 115 246 4 308 -49 27 -114 35 -166 20z m139 -92 c29 -29 34 -41 34 -81
0 -40 -5 -52 -34 -81 -28 -28 -42 -34 -76 -34 -34 0 -48 6 -76 34 -29 29 -34
41 -34 81 0 40 5 52 34 81 28 28 42 34 76 34 34 0 48 -6 76 -34z"/>
<path d="M17490 2830 l0 -180 35 0 34 0 3 117 3 117 85 -117 c78 -107 88 -117
118 -117 l32 0 0 180 0 180 -35 0 -35 0 0 -117 0 -117 -86 117 c-80 110 -88
117 -120 117 l-34 0 0 -180z"/>
<path d="M17969 3001 c-49 -16 -67 -31 -78 -64 -21 -63 9 -102 104 -133 61
-20 75 -31 75 -56 0 -39 -76 -43 -138 -7 -42 24 -39 24 -56 -9 -14 -27 -13
-29 12 -44 114 -67 262 -30 262 65 0 51 -31 82 -104 107 -69 23 -90 39 -80 63
9 24 44 27 101 8 l54 -18 15 28 c14 27 13 29 -13 43 -36 18 -121 27 -154 17z"/>
<path d="M630 2943 c-163 -13 -423 -44 -440 -53 -40 -21 -32 -96 12 -124 27
-16 534 112 583 148 43 31 -6 41 -155 29z"/>
<path d="M2395 2909 c-33 -11 -64 -24 -68 -28 -5 -5 -7 -27 -5 -50 l3 -42 83
57 c115 79 110 105 -13 63z"/>
<path d="M1565 2796 l-109 -103 54 -6 c30 -4 81 -7 113 -7 l57 0 0 110 c0 61
-1 110 -2 110 -2 0 -52 -47 -113 -104z"/>
<path d="M1690 2788 l0 -106 36 -7 c20 -3 38 -4 41 -1 5 5 -63 204 -73 215 -2
2 -4 -43 -4 -101z"/>
<path d="M2122 2800 c-100 -43 -189 -84 -197 -90 -37 -31 4 -120 55 -120 17 0
20 7 22 43 1 42 1 42 5 5 l4 -36 128 75 c178 105 173 100 169 155 l-3 46 -183
-78z"/>
<path d="M591 2523 c-198 -146 -358 -269 -355 -275 3 -5 29 -7 57 -3 29 3 129
10 222 16 502 30 609 39 621 51 36 36 253 353 247 359 -5 4 -103 32 -220 62
l-211 55 -361 -265z m541 59 c11 -12 -90 -141 -115 -147 -43 -9 -389 -46 -393
-42 -3 2 74 56 171 120 l176 115 77 -20 c42 -11 80 -23 84 -26z"/>
<path d="M2550 2783 c-8 -3 -63 -32 -122 -66 -92 -51 -108 -64 -109 -86 -2
-23 -2 -23 -6 -4 -4 20 -13 16 -124 -54 -133 -84 -158 -110 -141 -148 17 -37
58 -60 85 -48 32 15 266 212 364 306 90 86 107 119 53 100z"/>
<path d="M2656 2647 c-12 -9 -17 -23 -14 -47 l3 -35 23 36 c33 54 28 75 -12
46z"/>
<path d="M2524 2548 c-55 -46 -121 -102 -147 -124 l-47 -42 0 -88 1 -89 55 60
c31 33 99 110 151 172 89 106 94 114 91 153 l-3 41 -101 -83z"/>
<path d="M5192 2616 c-84 -46 -94 -217 -16 -286 36 -31 92 -40 123 -21 10 7
23 3 40 -10 17 -14 27 -17 35 -9 8 8 4 16 -13 29 -22 17 -22 19 -8 47 58 115
1 265 -101 264 -20 -1 -47 -6 -60 -14z m109 -44 c27 -24 33 -37 37 -85 7 -86
-22 -139 -56 -105 -9 9 -15 9 -24 0 -9 -9 -8 -15 6 -25 17 -13 17 -14 2 -20
-21 -8 -56 6 -80 32 -24 27 -33 115 -16 165 12 36 48 65 82 66 10 0 32 -13 49
-28z"/>
<path d="M5980 2464 c0 -128 3 -165 13 -162 9 4 13 48 15 166 2 140 0 162 -13
162 -13 0 -15 -24 -15 -166z"/>
<path d="M6110 2605 c0 -16 6 -25 15 -25 9 0 15 9 15 25 0 16 -6 25 -15 25 -9
0 -15 -9 -15 -25z"/>
<path d="M6802 2607 c-28 -30 -30 -97 -4 -120 10 -10 41 -24 68 -33 64 -22 74
-31 74 -65 0 -33 -23 -49 -69 -49 -33 0 -71 30 -71 55 0 8 -7 15 -15 15 -26 0
-17 -49 14 -81 24 -23 38 -29 73 -29 53 0 83 19 98 64 9 27 8 42 -3 68 -14 34
-20 38 -112 70 -31 11 -41 19 -43 40 -7 61 87 73 116 15 16 -32 46 -27 36 7
-18 64 -118 90 -162 43z"/>
<path d="M7320 2465 c0 -140 2 -165 15 -165 13 0 15 25 15 165 0 140 -2 165
-15 165 -13 0 -15 -25 -15 -165z"/>
<path d="M8034 2617 c-2 -7 -3 -80 -2 -162 3 -133 5 -150 21 -153 15 -3 17 6
17 77 l0 81 70 0 70 0 0 -80 c0 -64 3 -80 15 -80 13 0 15 25 15 165 0 138 -2
165 -15 165 -11 0 -15 -16 -17 -67 l-3 -68 -67 -3 -68 -3 0 71 c0 56 -3 70
-15 70 -9 0 -18 -6 -21 -13z"/>
<path d="M9395 2605 c-30 -29 -33 -83 -7 -114 9 -11 41 -29 71 -39 66 -22 86
-46 68 -82 -11 -21 -20 -25 -57 -25 -39 0 -47 4 -65 32 -11 18 -26 32 -32 33
-24 0 -14 -51 16 -81 39 -39 106 -41 148 -5 23 20 28 32 28 71 0 54 -21 77
-88 97 -79 22 -101 69 -44 96 35 17 64 8 86 -28 20 -34 48 -26 36 9 -20 63
-113 84 -160 36z"/>
<path d="M6258 2609 c-11 -6 -18 -22 -18 -39 0 -17 -4 -30 -10 -30 -5 0 -10
-7 -10 -15 0 -8 4 -15 9 -15 5 0 11 -43 13 -95 3 -99 10 -114 51 -115 10 0 17
8 17 20 0 11 -7 20 -15 20 -12 0 -15 16 -15 85 0 69 3 85 15 85 8 0 15 7 15
15 0 8 -6 15 -14 15 -10 0 -16 13 -18 39 -3 35 -5 38 -20 30z"/>
<path d="M10153 2609 c-7 -7 -13 -26 -13 -41 0 -18 -5 -28 -15 -28 -8 0 -15
-6 -15 -14 0 -8 7 -16 15 -20 12 -4 15 -25 15 -100 0 -76 3 -95 16 -100 29
-11 44 -6 44 14 0 11 -7 20 -15 20 -12 0 -15 16 -15 85 0 69 3 85 15 85 8 0
15 7 15 15 0 8 -6 15 -14 15 -10 0 -16 13 -18 41 -2 32 -5 38 -15 28z"/>
<path d="M1396 2522 c-9 -17 -17 -57 -18 -89 -1 -52 -2 -54 -5 -14 l-4 44 -75
-156 c-41 -86 -74 -161 -74 -165 0 -11 49 -16 276 -33 88 -7 168 -10 177 -6
14 5 17 24 19 119 l2 113 5 -89 6 -89 83 173 c45 96 79 177 75 180 -5 4 -82
12 -173 19 -91 7 -190 15 -222 18 -55 6 -56 5 -72 -25z m237 -98 c41 -3 67
-10 67 -17 0 -7 -20 -54 -45 -105 l-45 -93 -108 7 c-59 3 -110 9 -114 13 -4 3
15 52 42 109 l49 102 43 -5 c24 -2 73 -7 111 -11z"/>
<path d="M2718 2468 c-65 -69 -78 -89 -79 -118 -1 -31 -2 -32 -8 -10 -6 23
-15 15 -114 -105 -120 -143 -129 -168 -75 -208 48 -36 71 -18 160 123 241 381
282 494 116 318z"/>
<path d="M5470 2437 c0 -88 3 -106 18 -120 23 -21 66 -22 83 -1 11 14 13 14
21 0 21 -37 28 -10 28 104 0 100 -2 120 -15 120 -12 0 -15 -16 -15 -85 0 -72
-3 -88 -20 -105 -11 -11 -26 -20 -33 -20 -29 0 -37 25 -37 117 0 76 -3 93 -15
93 -12 0 -15 -18 -15 -103z"/>
<path d="M5741 2521 c-23 -23 -28 -51 -8 -51 7 0 18 9 25 21 10 15 21 19 45
17 26 -2 33 -8 35 -30 3 -28 0 -30 -65 -43 -56 -11 -79 -67 -47 -113 18 -26
68 -30 101 -7 19 13 22 13 27 0 3 -8 10 -15 16 -15 15 0 13 179 -3 210 -17 35
-96 41 -126 11z m83 -172 c-22 -24 -60 -25 -73 0 -14 26 7 51 49 60 32 6 35 5
38 -17 2 -13 -4 -32 -14 -43z"/>
<path d="M6110 2420 c0 -100 3 -120 15 -120 13 0 15 20 15 120 0 100 -2 120
-15 120 -12 0 -15 -20 -15 -120z"/>
<path d="M6373 2528 c2 -7 19 -61 37 -121 28 -89 31 -111 22 -132 -7 -15 -20
-25 -33 -25 -15 0 -19 -4 -15 -16 3 -9 6 -18 6 -20 0 -2 9 -4 20 -4 28 0 43
29 89 176 45 145 47 154 28 154 -9 0 -25 -35 -42 -92 l-28 -93 -25 93 c-21 74
-30 92 -45 92 -11 0 -17 -5 -14 -12z"/>
<path d="M7102 2533 c-23 -9 -42 -61 -42 -117 0 -44 5 -60 26 -85 52 -62 135
-28 147 59 7 54 -8 111 -34 133 -20 16 -69 21 -97 10z m82 -45 c23 -33 21
-113 -4 -138 -23 -23 -39 -25 -64 -7 -27 20 -34 108 -12 142 21 32 59 33 80 3z"/>
<path d="M7470 2520 c-22 -22 -27 -50 -7 -50 7 0 18 9 25 20 16 27 68 27 82 1
17 -33 12 -39 -45 -51 -58 -12 -85 -36 -85 -77 0 -52 70 -81 117 -48 19 13 22
13 27 0 3 -8 11 -15 18 -15 18 0 9 200 -11 224 -20 24 -95 22 -121 -4z m110
-109 c0 -4 -5 -22 -11 -40 -18 -51 -89 -57 -89 -7 0 28 9 36 54 47 44 10 46
10 46 0z"/>
<path d="M7710 2420 c0 -100 3 -120 15 -120 12 0 15 16 15 83 0 87 10 113 45
119 30 5 32 38 3 38 -13 0 -29 -5 -36 -12 -9 -9 -12 -9 -12 0 0 7 -7 12 -15
12 -12 0 -15 -20 -15 -120z"/>
<path d="M8371 2523 c-27 -22 -42 -84 -34 -135 13 -86 96 -118 147 -57 21 25
26 41 26 85 0 59 -19 108 -45 118 -30 11 -73 6 -94 -11z m95 -38 c22 -34 15
-122 -12 -142 -25 -18 -41 -16 -64 7 -25 25 -27 105 -4 138 21 30 59 29 80 -3z"/>
<path d="M8600 2420 c0 -100 3 -120 15 -120 12 0 15 15 15 78 0 90 15 127 50
127 30 0 38 -24 39 -128 1 -58 4 -78 14 -75 8 3 14 36 17 97 4 67 9 94 20 101
45 29 60 2 60 -107 0 -76 3 -93 15 -93 23 0 22 202 -1 224 -20 20 -68 21 -84
1 -12 -14 -15 -14 -30 0 -22 20 -64 19 -84 -1 -15 -14 -16 -14 -16 0 0 9 -7
16 -15 16 -12 0 -15 -20 -15 -120z"/>
<path d="M8976 2509 c-22 -25 -26 -41 -26 -89 0 -75 32 -120 86 -120 50 0 104
56 74 75 -6 4 -20 -5 -31 -19 -26 -33 -52 -33 -78 0 -36 46 -29 54 49 54 l70
0 0 40 c0 85 -91 122 -144 59z m98 -21 c28 -40 21 -49 -36 -46 -47 3 -53 5
-50 23 9 48 59 62 86 23z"/>
<path d="M9676 2433 c43 -138 44 -183 3 -183 -12 0 -19 -7 -19 -20 0 -25 31
-27 52 -2 9 9 35 78 58 152 22 74 43 141 46 148 2 8 -3 12 -13 10 -13 -2 -25
-29 -44 -93 l-26 -90 -28 93 c-21 70 -32 92 -45 92 -16 0 -14 -12 16 -107z"/>
<path d="M9907 2522 c-20 -22 -22 -75 -3 -91 7 -6 30 -17 51 -24 48 -17 64
-39 46 -61 -20 -24 -57 -19 -79 11 -21 29 -43 25 -35 -7 20 -75 153 -61 153
16 0 42 -17 61 -70 79 -43 14 -51 21 -48 38 4 31 63 37 73 8 8 -25 23 -27 32
-6 17 45 -85 76 -120 37z"/>
<path d="M10296 2509 c-22 -25 -26 -41 -26 -89 0 -75 32 -120 86 -120 50 0
104 56 74 75 -6 4 -20 -5 -31 -19 -26 -33 -52 -33 -78 0 -36 46 -29 54 47 54
38 0 71 2 74 5 3 3 2 24 -2 47 -15 80 -95 106 -144 47z m96 -16 c10 -9 18 -25
18 -35 0 -17 -7 -19 -52 -16 -47 3 -53 5 -50 23 8 46 49 60 84 28z"/>
<path d="M10532 2423 c2 -97 6 -118 18 -118 12 0 16 19 20 90 5 98 11 115 40
115 30 0 40 -32 40 -124 0 -70 3 -86 15 -86 12 0 15 16 15 84 0 68 4 88 19
107 16 20 23 22 38 13 15 -9 19 -28 23 -104 3 -62 9 -95 18 -98 17 -5 17 209
0 226 -17 17 -73 15 -88 -3 -12 -14 -15 -14 -30 0 -22 20 -59 19 -82 -2 -17
-15 -18 -15 -18 0 0 10 -7 17 -15 17 -13 0 -15 -17 -13 -117z"/>
<path d="M10906 2524 c-9 -8 -16 -31 -16 -49 0 -37 21 -58 73 -70 37 -10 52
-38 31 -59 -23 -23 -50 -19 -74 11 -16 20 -23 24 -32 15 -9 -9 -7 -18 9 -39
30 -41 93 -44 122 -7 41 52 24 90 -52 118 -39 15 -48 22 -45 40 4 29 51 34 70
7 9 -13 19 -17 28 -11 11 7 11 13 -4 34 -13 21 -25 26 -56 26 -22 0 -45 -7
-54 -16z"/>
<path d="M2893 2392 c-28 -40 -94 -144 -147 -231 -91 -150 -96 -162 -96 -214
0 -58 7 -67 54 -67 33 0 48 22 106 155 101 231 141 346 138 389 l-3 41 -52
-73z"/>
<path d="M3070 2340 c-64 -126 -110 -244 -111 -284 -1 -28 -3 -33 -6 -16 -4
20 -13 6 -44 -70 -45 -112 -49 -152 -17 -174 12 -9 33 -16 45 -16 22 0 23 4
25 83 l2 82 5 -80 c5 -70 8 -77 18 -58 17 28 109 398 125 496 16 108 1 122
-42 37z"/>
<path d="M2263 2322 c-60 -55 -67 -85 -30 -120 26 -24 75 -29 83 -9 3 8 4 51
2 96 l-3 82 -52 -49z"/>
<path d="M1891 2200 c-40 -77 -69 -140 -65 -140 16 0 279 82 287 90 7 6 -64
99 -132 173 -16 16 -21 8 -90 -123z"/>
<path d="M3235 2275 c-9 -30 -13 -60 -9 -66 4 -7 3 -9 -3 -6 -11 7 -57 -177
-49 -199 3 -8 2 -13 -3 -10 -8 5 -51 -180 -51 -220 0 -44 71 -68 107 -37 18
15 24 36 33 115 13 123 13 465 0 473 -5 3 -16 -19 -25 -50z"/>
<path d="M1054 2050 c-84 -29 -478 -219 -491 -237 -33 -43 1 -113 54 -113 38
0 431 265 487 329 29 32 8 41 -50 21z"/>
<path d="M2133 1996 l-113 -31 0 -56 0 -56 66 18 67 18 -7 -102 c-4 -56 -9
-109 -12 -117 -2 -10 -40 -25 -106 -43 -57 -15 -107 -27 -112 -27 -8 0 -2 108
10 191 5 32 10 38 45 48 l39 12 0 55 c0 62 12 59 -114 24 -48 -13 -61 -21 -66
-41 -9 -31 -44 -428 -39 -433 5 -5 429 111 437 119 6 5 41 363 42 418 0 24 -4
37 -12 36 -7 -1 -64 -16 -125 -33z"/>
<path d="M1565 2000 c-93 -10 -171 -18 -172 -19 -2 0 -3 -35 -3 -76 l0 -75 58
5 c31 3 69 8 85 10 33 6 34 -3 6 -99 l-21 -72 -185 -93 c-102 -50 -187 -90
-189 -88 -2 2 50 76 116 165 l120 162 0 81 0 80 -32 -3 c-31 -3 -43 -18 -176
-218 -301 -453 -351 -530 -343 -534 7 -5 800 339 815 354 7 7 124 410 126 433
0 8 8 9 -205 -13z"/>
<path d="M2633 1945 c0 -22 2 -30 4 -17 2 12 2 30 0 40 -3 9 -5 -1 -4 -23z"/>
<path d="M2416 1868 c-12 -69 -36 -272 -33 -275 5 -4 247 178 247 186 0 3 -17
15 -38 26 -20 12 -67 38 -104 59 l-67 37 -5 -33z"/>
<path d="M2732 1659 l-72 -50 0 -65 0 -65 45 32 c25 18 47 30 49 28 5 -5 56
-203 56 -216 0 -5 -34 -34 -75 -63 -51 -36 -75 -60 -76 -74 0 -16 -2 -17 -7
-6 -4 8 -13 15 -21 15 -10 0 -22 29 -38 90 -31 122 -30 128 17 159 40 26 40
26 40 92 0 52 -3 64 -12 57 -7 -5 -52 -38 -100 -72 -63 -45 -88 -68 -88 -84 0
-26 99 -410 109 -419 8 -9 371 248 371 263 0 8 -91 362 -106 412 -3 9 -9 17
-13 17 -4 0 -39 -23 -79 -51z"/>
<path d="M3000 1628 c0 -12 4 -16 12 -12 7 4 8 3 4 -5 -8 -12 45 -261 55 -261
9 0 159 235 159 249 0 6 -12 11 -27 12 -16 0 -35 2 -43 4 -8 2 -48 10 -87 18
-70 13 -73 13 -73 -5z"/>
<path d="M2340 1500 c-3 -33 -3 -33 -7 -7 -5 34 7 37 -170 -46 l-132 -62 -3
-95 -2 -95 -5 92 -6 92 -40 -22 -39 -22 -103 -420 c-56 -231 -102 -426 -103
-433 0 -24 22 -7 161 124 l137 129 1 87 1 88 -42 -46 c-23 -25 -44 -41 -46
-34 -2 6 22 99 53 205 l58 193 80 36 c44 20 81 35 82 34 2 -2 6 -42 10 -89 l7
-85 -96 -101 -96 -101 0 -87 0 -87 150 144 150 143 2 130 2 130 6 -124 c4
-110 7 -122 19 -107 13 15 13 42 2 190 -7 95 -16 197 -21 227 -6 47 -8 49 -10
19z"/>
<path d="M3271 1368 c0 -10 -5 -18 -10 -18 -10 0 -81 -105 -81 -120 0 -14 104
-163 107 -153 2 4 -1 76 -6 158 -4 83 -9 142 -10 133z m-24 -103 c0 -8 -4 -12
-9 -9 -5 3 -6 10 -3 15 9 13 12 11 12 -6z"/>
<path d="M1643 1302 c-81 -68 -353 -352 -364 -380 -16 -43 38 -100 84 -88 36
9 357 455 357 497 0 29 -14 24 -77 -29z"/>
<path d="M3017 1232 l-37 -38 1 -104 c0 -58 3 -99 6 -92 9 22 30 13 43 -18 7
-16 17 -30 23 -30 6 0 8 -3 4 -6 -3 -3 3 -26 14 -51 l19 -44 -30 -70 c-16 -38
-27 -69 -23 -69 3 0 0 -6 -6 -13 -6 -8 -8 -17 -4 -20 3 -4 2 -7 -4 -7 -21 0
-30 -51 -31 -180 l-1 -135 124 245 c68 135 124 252 124 260 1 8 -12 43 -29 78
-16 34 -29 63 -29 65 0 4 -119 259 -123 263 -3 2 -21 -13 -41 -34z"/>
<path d="M2852 1067 l-114 -114 47 -429 c25 -236 50 -438 54 -449 7 -16 21 5
75 112 l66 133 -1 132 -1 133 -25 -57 c-15 -32 -29 -58 -33 -58 -9 0 -18 87
-26 273 l-7 148 42 43 42 43 -3 101 -3 102 -113 -113z"/>
<path d="M2490 850 c-12 -17 -46 -82 -76 -145 l-54 -115 -2 -133 -2 -132 -4
120 -3 120 -46 -105 c-25 -57 -45 -116 -45 -129 0 -51 81 -81 115 -43 15 16
109 333 141 475 27 116 18 146 -24 87z"/>
</g>
</svg>
